<svg width="56" height="64" viewBox="0 0 56 64" fill="none" xmlns="http://www.w3.org/2000/svg">
<g id="Logo">
<g id="Logo_2">
<path d="M1.00397 44.6876C1.09168 44.6338 1.23521 44.5602 1.32093 44.5244C1.40864 44.4886 1.48439 44.4667 1.49037 44.4746C1.49635 44.4826 1.55616 44.5244 1.62194 44.5702C1.68773 44.6139 2.08243 44.8965 2.49907 45.197C2.9157 45.4975 3.36025 45.8199 3.48783 45.9135C3.60949 46.0007 3.81271 46.1514 4.17355 46.4188L4.22741 46.4587L4.21345 46.6179C4.20747 46.7055 4.18156 46.8627 4.11976 47.1553L4.16362 47.1851C4.18754 47.201 4.51048 47.3881 4.87927 47.599C5.24806 47.812 5.88597 48.1782 6.29663 48.417C6.70728 48.6558 7.43091 49.0717 7.90137 49.3443C8.37383 49.617 8.99379 49.9732 9.28285 50.1384C9.56991 50.3036 9.80314 50.4468 9.79916 50.4588C9.79318 50.4687 10.1141 50.7115 10.5088 50.9961C10.9035 51.2807 11.374 51.621 11.5574 51.7523C11.7388 51.8817 11.8983 51.9991 11.9082 52.013C11.9182 52.025 12.1255 52.1782 12.3667 52.3513C12.608 52.5245 13.1601 52.9205 13.5927 53.2329C14.0253 53.5454 14.6672 54.0091 15.0181 54.2638C15.3689 54.5185 15.6958 54.7593 15.7457 54.7971C15.7955 54.8369 15.8753 54.8927 15.9251 54.9205C15.9749 54.9504 16.0826 55.024 16.1643 55.0837C16.246 55.1434 16.3178 55.1991 16.3238 55.2051C16.3298 55.2111 16.3856 55.2568 16.4494 55.3066C16.5152 55.3564 16.565 55.4101 16.563 55.428C16.563 55.4479 16.4972 55.5235 16.4195 55.5952C16.3397 55.6668 16.2161 55.7663 16.1444 55.8121C16.0726 55.8598 15.939 55.9355 15.8454 55.9792C15.7517 56.023 15.6041 56.0768 15.5164 56.0986C15.4287 56.1205 15.2712 56.1484 15.1676 56.1603C15.034 56.1743 14.9164 56.1743 14.7689 56.1583C14.6533 56.1464 14.4838 56.1146 14.3901 56.0887C14.2964 56.0608 14.1489 56.0051 14.0612 55.9633C13.9735 55.9195 13.83 55.832 13.7422 55.7683C13.6545 55.7026 13.513 55.5753 13.4253 55.4817C13.3396 55.3902 13.2239 55.2429 13.1701 55.1554C13.1183 55.0678 13.0465 54.9245 13.0126 54.8369C12.9787 54.7494 12.9329 54.5961 12.913 54.4986C12.887 54.3792 12.8751 54.2359 12.8751 54.0648C12.8751 53.9116 12.887 53.7523 12.907 53.6568C12.9249 53.5732 12.9608 53.4399 12.9867 53.3643C13.0126 53.2867 13.0326 53.223 13.0286 53.223C13.0266 53.221 12.8013 53.0916 12.5262 52.9364C12.2531 52.7792 11.8704 52.5603 11.679 52.4489C11.4876 52.3354 10.9494 52.025 10.4829 51.7583C10.0164 51.4916 9.43435 51.1553 9.18716 51.012C8.93997 50.8707 8.38379 50.5483 7.95121 50.2976C7.51863 50.0488 6.82689 49.6508 6.41624 49.414C6.00558 49.1772 5.43545 48.8488 5.15038 48.6836C4.86532 48.5204 4.42875 48.2677 4.17956 48.1224C3.92839 47.9792 3.71907 47.8617 3.7111 47.8617C3.70113 47.8637 3.62737 47.9274 3.54564 48.007C3.46391 48.0866 3.32038 48.1981 3.22669 48.2558C3.13299 48.3135 2.98747 48.3871 2.90374 48.419C2.81802 48.4528 2.68845 48.4926 2.61469 48.5105C2.53894 48.5264 2.3994 48.5483 2.29972 48.5583C2.19606 48.5682 2.03459 48.5682 1.92096 48.5563C1.81132 48.5463 1.64188 48.5165 1.5422 48.4886C1.44253 48.4608 1.27309 48.3951 1.16344 48.3394C1.0538 48.2856 0.892332 48.1841 0.80462 48.1145C0.716907 48.0448 0.599292 47.9334 0.543475 47.8697C0.487658 47.806 0.397952 47.6846 0.344128 47.603C0.292298 47.5214 0.22452 47.398 0.192624 47.3284C0.162722 47.2607 0.120859 47.1453 0.0989313 47.0697C0.0789966 46.9961 0.0471011 46.8388 0.0271664 46.7174C-0.00871609 46.5085 -0.00871609 46.4886 0.0251729 46.2498C0.0451076 46.1125 0.0829835 45.9294 0.110892 45.8418C0.138801 45.7542 0.196611 45.611 0.240468 45.5234C0.284324 45.4358 0.362069 45.3065 0.415893 45.2348C0.467723 45.1632 0.585338 45.0338 0.679031 44.9463C0.770731 44.8587 0.916254 44.7433 1.00397 44.6876Z" fill="#6172F3"/>
<path d="M1.70766 36.9223C1.70367 34.7511 1.70766 34.3312 1.73158 34.3233C1.74554 34.3193 1.76747 34.3193 1.77943 34.3253C1.79139 34.3312 1.9409 34.4367 2.11034 34.5581C2.27979 34.6815 2.44325 34.7949 2.52897 34.8467V37.4397C2.52897 38.8646 2.521 40.0427 2.51302 40.0547C2.50306 40.0726 2.45123 40.0467 2.33959 39.9671C2.25188 39.9054 2.08443 39.784 1.96681 39.6985C1.8472 39.6129 1.75152 39.5492 1.75152 39.5592C1.75152 39.5671 1.74155 39.5592 1.73158 39.5432C1.71962 39.5253 1.71165 38.5542 1.70766 36.9223Z" fill="#6172F3"/>
<path d="M5.878 39.1651C6.08133 38.8089 6.33451 38.3731 6.43817 38.1959C6.56774 37.9691 6.63552 37.8716 6.65944 37.8716C6.67937 37.8716 6.82689 37.9671 6.98836 38.0865C7.14983 38.2039 7.2834 38.3114 7.28738 38.3253C7.29137 38.3372 7.27542 38.3532 7.25349 38.3591C7.22957 38.3651 7.21761 38.381 7.22359 38.3989C7.22957 38.4149 7.0701 38.7134 6.86875 39.0616C6.66741 39.4079 6.34447 39.9651 6.1531 40.2995C5.95973 40.6338 5.67865 41.1174 5.52914 41.3741C5.37963 41.6308 5.25006 41.8398 5.2381 41.8378C5.22813 41.8338 5.22414 41.8438 5.23012 41.8577C5.2361 41.8696 5.22215 41.9134 5.19823 41.9512C5.17431 41.991 5.15038 42.0109 5.1444 41.999C5.13643 41.987 5.01283 41.8935 4.8713 41.792C4.72976 41.6905 4.59421 41.591 4.57228 41.5691C4.55035 41.5492 4.52443 41.5393 4.51447 41.5472C4.5045 41.5572 4.50051 41.5552 4.50649 41.5433C4.51247 41.5333 4.5962 41.384 4.69189 41.2149C4.78757 41.0457 5.01084 40.6597 5.18627 40.3592C5.36169 40.0587 5.67267 39.5213 5.878 39.1651Z" fill="#6172F3"/>
<path d="M8.97785 42.0507C9.31674 41.8557 9.89684 41.5214 10.2636 41.3064C10.6304 41.0935 10.9354 40.9184 10.9394 40.9164C10.9434 40.9164 10.9414 40.9204 10.9354 40.9263C10.9275 40.9323 10.9952 40.99 11.0869 41.0537C11.1766 41.1194 11.3182 41.2209 11.3999 41.2786C11.4816 41.3363 11.5674 41.4 11.5893 41.4219C11.6292 41.4577 11.6292 41.4597 11.5195 41.5174C11.4597 41.5512 11.1368 41.7363 10.8019 41.9313C10.467 42.1263 9.9387 42.4308 9.62572 42.6079C9.31275 42.787 8.87817 43.0378 8.65889 43.1652C8.43961 43.2945 8.11069 43.4856 7.92729 43.591C7.74189 43.6965 7.58242 43.7821 7.57245 43.7821C7.56248 43.7821 7.55451 43.7741 7.5585 43.7622C7.56049 43.7522 7.42294 43.6428 7.25349 43.5214C7.08405 43.4 6.93055 43.2925 6.9146 43.2826C6.88869 43.2647 6.88869 43.2607 6.9146 43.2428C6.93055 43.2328 7.26346 43.0378 7.65219 42.8129C8.04092 42.588 8.63896 42.2457 8.97785 42.0507Z" fill="#6172F3"/>
<path d="M16.8301 46.1264C16.8241 46.1125 16.856 45.9393 16.8999 45.7403C16.9697 45.4398 16.9876 45.3801 17.0175 45.3821C17.0355 45.3841 17.1889 45.4836 17.3584 45.603C17.5258 45.7244 17.6714 45.8339 17.6813 45.8478C17.6933 45.8617 17.5677 46.413 17.3385 47.3503C17.1411 48.1622 16.9019 49.1493 16.8082 49.5433C16.7145 49.9374 16.6328 50.2677 16.6248 50.2757C16.6188 50.2856 16.4593 50.1822 16.2739 50.0488C16.0886 49.9155 15.9331 49.806 15.9291 49.804C15.9251 49.8021 15.9769 49.5732 16.0427 49.2946C16.1085 49.016 16.258 48.3971 16.3716 47.9214C16.4872 47.4458 16.6308 46.8468 16.6906 46.5941C16.7564 46.3234 16.8102 46.1343 16.8222 46.1403C16.8321 46.1463 16.8361 46.1383 16.8301 46.1264Z" fill="#6172F3"/>
<path d="M19.4316 47.3742C19.2821 47.1155 19.2223 46.9921 19.2382 46.9821C19.2502 46.9742 19.2881 46.9881 19.322 47.014C19.3558 47.0398 19.5189 47.1569 19.6821 47.2742L19.6828 47.2747C19.8482 47.3941 19.9918 47.5015 20.0017 47.5135C20.0117 47.5274 20.1692 47.6428 20.3506 47.7742C20.532 47.9035 20.6815 48.017 20.6855 48.0249C20.6875 48.0349 20.7014 48.0369 20.7154 48.0309C20.7294 48.0249 20.7872 48.1065 20.8669 48.2458C20.9367 48.3672 21.0543 48.5702 21.1261 48.6936C21.2237 48.8588 21.2656 48.9165 21.2875 48.9065C21.3035 48.9006 21.3972 48.8866 21.4968 48.8767C21.5965 48.8667 21.7321 48.8647 21.8018 48.8727C21.8696 48.8806 21.9334 48.8966 21.9414 48.9085C21.9494 48.9205 22.0849 49.0239 22.2444 49.1374C22.4039 49.2488 22.7089 49.4677 22.9222 49.623C23.1355 49.7782 23.3249 49.9095 23.3408 49.9155C23.3627 49.9254 23.3607 49.9294 23.3308 49.9294C23.2989 49.9314 23.2969 49.9354 23.3209 49.9493C23.3448 49.9633 23.3328 49.9772 23.267 50.009C23.2192 50.0329 23.1813 50.0568 23.1813 50.0667C23.1813 50.0747 23.1913 50.1563 23.2032 50.2498C23.2172 50.3672 23.2172 50.4707 23.2032 50.5881C23.1913 50.6817 23.1654 50.811 23.1454 50.8767C23.1235 50.9424 23.0777 51.0538 23.0418 51.1255C23.0059 51.1971 22.9541 51.2866 22.9262 51.3245C22.8982 51.3623 22.8484 51.422 22.7587 51.5135L23.2511 52.3693C23.5049 52.8108 23.8758 53.4512 24.1036 53.8446L24.1482 53.9215C24.3714 54.3056 24.6565 54.7991 24.7841 55.022C24.9136 55.2449 25.0093 55.4359 25.0014 55.4499C24.9954 55.4618 24.9974 55.4678 25.0073 55.4578C25.0173 55.4499 25.0731 55.5255 25.1329 55.627C25.1907 55.7285 25.3861 56.0628 25.5635 56.3693C25.7409 56.6758 25.8984 56.9484 25.9144 56.9763C25.9363 57.0181 25.9363 57.024 25.9104 57.0141C25.8964 57.0061 25.6173 56.8091 25.2944 56.5763C24.9715 56.3414 24.6465 56.1066 24.5728 56.0549C24.4831 55.9932 24.4412 55.9733 24.4492 55.9972C24.4571 56.0197 24.4465 56.0144 24.4173 55.9812C24.3934 55.9534 24.3375 55.8638 24.2917 55.7822C24.2478 55.7006 24.0545 55.3643 23.8611 55.0359C23.6697 54.7076 23.3149 54.0946 23.0717 53.6727C22.8305 53.2509 22.5015 52.6857 22.055 51.9255L21.9952 51.9434C21.9613 51.9533 21.8557 51.9673 21.756 51.9752C21.6444 51.9832 21.5168 51.9772 21.4171 51.9613C21.3294 51.9474 21.1938 51.9155 21.1181 51.8876C21.0423 51.8618 20.9287 51.812 20.8689 51.7762C20.8091 51.7424 20.7154 51.6767 20.5599 51.5473L20.3207 51.6807C20.1891 51.7543 19.9041 51.9155 19.6888 52.0369C19.4715 52.1603 19.2841 52.2598 19.2741 52.2598C19.2642 52.2598 19.2582 52.2518 19.2642 52.2399C19.2701 52.2299 19.1346 52.1185 18.9611 51.9971C18.7897 51.8737 18.6402 51.7663 18.6282 51.7583C18.6123 51.7483 18.6163 51.7344 18.6362 51.7165C18.6522 51.7006 18.997 51.4996 20.1353 50.8568L20.1233 50.7971C20.1154 50.7653 20.1054 50.6299 20.0974 50.4986C20.0894 50.3115 20.0934 50.224 20.1213 50.1006C20.1393 50.013 20.1931 49.8618 20.239 49.7623C20.2868 49.6647 20.3745 49.5215 20.5479 49.3045L20.5081 49.2409C20.4822 49.1951 20.4782 49.1752 20.4961 49.1732C20.5161 49.1732 20.5161 49.1712 20.4961 49.1632C20.4822 49.1593 20.4742 49.1473 20.4802 49.1354C20.4861 49.1254 20.4802 49.1175 20.4662 49.1214C20.4543 49.1234 20.2649 48.817 20.0456 48.4389C19.8283 48.0607 19.5512 47.5831 19.4316 47.3742Z" fill="#6172F3"/>
<path d="M28.8527 54.9922C28.9464 54.5066 29.0202 54.1086 29.0182 54.1046C29.0162 54.1006 29.0322 54.0966 29.0541 54.0966C29.074 54.0966 29.2395 54.2041 29.4209 54.3354C29.6362 54.4907 29.7478 54.5842 29.7458 54.6061C29.7438 54.624 29.6741 54.9922 29.5883 55.424C29.5105 55.8252 29.3381 56.704 29.1925 57.4459L29.1597 57.6131C29.0082 58.3852 28.8886 59.0181 28.8946 59.0221C28.8986 59.0241 28.9145 59.0061 28.9305 58.9823C28.9444 58.9564 29.094 58.6997 29.2634 58.4091L30.009 57.1156C30.2502 56.6937 30.5651 56.1504 30.7067 55.9076C30.9 55.5792 30.9738 55.4678 30.9957 55.4757C31.0117 55.4817 31.1512 55.5792 31.3027 55.6887C31.4542 55.8001 31.5818 55.9036 31.5858 55.9175C31.5898 55.9315 31.6037 55.9355 31.6177 55.9275C31.6336 55.9175 31.6376 55.9195 31.6316 55.9315C31.6237 55.9434 31.4622 56.22 31.2708 56.5484C31.0795 56.8768 30.8123 57.3385 30.6768 57.5733C30.5412 57.8081 30.2203 58.3633 29.9631 58.8071C29.7059 59.2509 29.4926 59.6151 29.4887 59.6191C29.4847 59.6211 29.4588 59.6032 29.4328 59.5793C29.4089 59.5534 29.2694 59.4499 29.1239 59.3504C28.9803 59.2489 28.8547 59.1653 28.8428 59.1653C28.8308 59.1653 28.8268 59.1534 28.8308 59.1415C28.8348 59.1275 28.8268 59.1156 28.8149 59.1136C28.8029 59.1136 28.6534 59.0121 28.484 58.8887C28.2707 58.7335 28.171 58.6738 28.163 58.6917C28.155 58.7076 28.1451 58.7096 28.1391 58.6977C28.1331 58.6877 28.2527 58.0469 28.4062 57.2748C28.5577 56.5026 28.7591 55.4758 28.8527 54.9922Z" fill="#6172F3"/>
<path d="M32.9593 58.0668C33.3321 57.8539 33.6829 57.6509 33.7367 57.6171C33.7926 57.5832 33.8404 57.5534 33.8464 57.5534C33.8524 57.5514 33.9022 57.5812 33.956 57.6191C34.0118 57.6569 34.1633 57.7643 34.2949 57.8599C34.4265 57.9554 34.5321 58.0429 34.5301 58.0529C34.5262 58.0628 34.5361 58.0708 34.5501 58.0708C34.562 58.0708 34.3129 58.2201 33.9959 58.4031C33.6789 58.5842 33.1447 58.8927 32.8098 59.0857C32.4749 59.2808 31.839 59.6469 31.3944 59.9017C30.9499 60.1544 30.5791 60.3713 30.5671 60.3813C30.5572 60.3912 30.5372 60.3992 30.5233 60.3992C30.5093 60.3992 30.5013 60.3932 30.5073 60.3853C30.5113 60.3753 30.4954 60.3514 30.4714 60.3276C30.4475 60.3037 30.3 60.1942 30.1445 60.0848C29.987 59.9733 29.8594 59.8758 29.8594 59.8678C29.8594 59.8579 29.9113 59.8221 29.9731 59.7843C30.0369 59.7484 30.3399 59.5733 30.6469 59.3982C30.9539 59.2231 31.4482 58.9385 31.7433 58.7673C32.0383 58.5942 32.5865 58.2798 32.9593 58.0668Z" fill="#6172F3"/>
<path d="M1.70765 41.9831C1.70367 40.0766 1.70965 39.5651 1.72759 39.5591C1.74154 39.5532 1.86314 39.6288 1.99671 39.7243C2.13027 39.8218 2.3037 39.9432 2.52697 40.0905L2.52896 44.409L2.64259 44.4368C2.70638 44.4507 2.76818 44.4667 2.77815 44.4726C2.78811 44.4766 2.83795 44.4149 2.88579 44.3353C2.93364 44.2557 3.21272 43.7741 3.50576 43.2647C3.7988 42.7552 4.13969 42.1681 4.26129 41.9612C4.38488 41.7522 4.49253 41.585 4.50449 41.587C4.51446 41.591 4.52044 41.587 4.52044 41.5771C4.51845 41.5691 4.51845 41.5572 4.52044 41.5472C4.52044 41.5393 4.59819 41.589 4.68789 41.6567C4.77959 41.7263 4.91913 41.8258 4.99688 41.8816C5.07462 41.9353 5.1424 41.989 5.14838 42.001C5.15237 42.0109 4.93907 42.397 4.67394 42.8567C4.40681 43.3164 4.03403 43.9612 3.50377 44.8866L3.59946 44.9821C3.65129 45.0338 3.70511 45.0756 3.71508 45.0756C3.72505 45.0756 3.96426 44.9423 4.24335 44.7791C4.52243 44.6159 4.94505 44.3731 5.18028 44.2398L5.22157 44.216C5.45959 44.0791 5.82416 43.8694 6.0574 43.7323C6.30459 43.589 6.59165 43.4239 6.88469 43.2607L7.02424 43.3562C7.09999 43.4099 7.25149 43.5194 7.36313 43.599C7.47277 43.6786 7.56247 43.7542 7.56247 43.7681C7.56247 43.7801 7.49868 43.8298 7.41894 43.8756C7.33323 43.9254 7.26345 43.9552 7.2495 43.9473C7.23355 43.9373 7.22957 43.9393 7.23754 43.9512C7.24551 43.9632 7.04019 44.0945 6.75911 44.2577C6.48799 44.4169 5.97567 44.7134 5.61884 44.9164C5.26201 45.1214 4.78158 45.398 4.55233 45.5314C4.32309 45.6647 4.12972 45.7801 4.12374 45.7841C4.11776 45.7901 4.12972 45.8577 4.14965 45.9373C4.16959 46.0169 4.1955 46.1562 4.20547 46.2498C4.21743 46.3433 4.22341 46.4269 4.21943 46.4348C4.21544 46.4428 4.1058 46.3692 3.97423 46.2717C3.84266 46.1722 3.59547 45.9911 3.42602 45.8677C3.25658 45.7463 2.79409 45.4119 2.39939 45.1254C2.00468 44.8408 1.63988 44.5801 1.58805 44.5483C1.53622 44.5144 1.49435 44.4826 1.49236 44.4726C1.49236 44.4647 1.53023 44.4488 1.57808 44.4388C1.62393 44.4269 1.67376 44.4129 1.68772 44.409C1.70566 44.401 1.71164 43.9015 1.70765 41.9831Z" fill="#6172F3"/>
<path d="M15.3789 51.9951C15.3809 51.9931 15.5025 51.5016 15.648 50.9006C15.7935 50.3016 15.9211 49.812 15.9291 49.812C15.937 49.812 16.0945 49.9215 16.2799 50.0528C16.4633 50.1861 16.6148 50.2956 16.6188 50.2976C16.6228 50.2976 16.5151 50.7513 16.1384 52.3095L16.2161 52.3673C16.258 52.3991 16.3816 52.5145 16.6826 52.817L17.0474 52.61C17.2468 52.4966 17.6793 52.2518 18.0083 52.0648C18.4448 51.818 18.6123 51.7324 18.6282 51.7503C18.6402 51.7623 18.7877 51.8717 18.9571 51.9951C19.1266 52.1165 19.2641 52.2299 19.2641 52.2478C19.2641 52.2658 19.0648 52.3911 18.7359 52.5782C18.4448 52.7434 17.9425 53.028 17.6195 53.211C17.0913 53.5115 17.0315 53.5494 17.0335 53.5931C17.0354 53.621 17.0474 53.7364 17.0614 53.8518C17.0813 54.017 17.0813 54.1026 17.0614 54.2598C17.0494 54.3693 17.0335 54.4907 17.0295 54.5285C17.0195 54.5961 17.0215 54.6001 17.1551 54.6757C17.2288 54.7175 17.7571 55.022 18.3272 55.3504C18.8973 55.6787 19.5891 56.0767 19.8622 56.236C20.1373 56.3932 20.6875 56.7116 21.0882 56.9404C21.4889 57.1713 22.067 57.5036 22.374 57.6827C22.681 57.8599 23.2551 58.1922 23.6498 58.4191C24.0445 58.6459 24.7223 59.036 25.1548 59.2847C25.5874 59.5335 26.0439 59.7962 26.1675 59.8698C26.2891 59.9415 26.3968 60.0012 26.4067 60.0012C26.4147 60.0012 26.4626 59.9574 26.5164 59.9057C26.5682 59.8539 26.6101 59.8081 26.6101 59.8022C26.6121 59.7962 26.5104 59.6171 26.3888 59.4042C26.2672 59.1912 26.0718 58.8549 25.9562 58.6579C25.8406 58.4609 25.6094 58.0609 25.4399 57.7663C25.2565 57.4459 25.1409 57.225 25.1489 57.2091C25.1588 57.1952 25.1568 57.1912 25.1449 57.1992C25.1329 57.2071 24.9814 56.9663 24.7861 56.634C24.6007 56.3156 24.4392 56.0409 24.4272 56.023C24.4133 55.9971 24.4133 55.9952 24.4372 56.0111C24.4611 56.027 24.4631 56.023 24.4511 55.9952C24.4432 55.9753 24.489 55.9972 24.5728 56.0549C24.6465 56.1066 24.9715 56.3414 25.2944 56.5763C25.6173 56.8111 25.8964 57.0061 25.9124 57.0101C25.9283 57.0141 26.0081 57.1355 26.0878 57.2768C26.1655 57.4181 26.2273 57.5414 26.2214 57.5534C26.2154 57.5653 26.2194 57.5713 26.2293 57.5673C26.2413 57.5653 26.4127 57.8459 26.6141 58.1902C26.8154 58.5345 27.0546 58.9464 27.3078 59.3942L27.4433 59.3604C27.5171 59.3405 27.6706 59.3146 27.7862 59.3007C27.9018 59.2887 27.9975 59.2768 27.9995 59.2768C28.0015 59.2748 28.0274 59.1633 28.0534 59.026C28.0813 58.8887 28.1092 58.7574 28.1152 58.7315C28.1211 58.7076 28.1331 58.6917 28.1451 58.6977C28.157 58.7036 28.167 58.6977 28.171 58.6857C28.173 58.6738 28.3145 58.7653 28.484 58.8887C28.6534 59.0121 28.8029 59.1136 28.8149 59.1136C28.8268 59.1156 28.8348 59.1275 28.8308 59.1395C28.8268 59.1534 28.8308 59.1653 28.8428 59.1653C28.8547 59.1653 28.9803 59.2489 29.1238 59.3484C29.2694 59.4499 29.4089 59.5534 29.4328 59.5773C29.4587 59.6032 29.4767 59.635 29.4727 59.6469C29.4687 59.6609 29.4548 59.6708 29.4428 59.6668C29.4308 59.6649 29.4249 59.6708 29.4308 59.6828C29.4368 59.6947 29.4288 59.7246 29.4169 59.7524C29.395 59.7962 29.3969 59.8081 29.4348 59.8459C29.4607 59.8718 29.4807 59.8997 29.4807 59.9116C29.4807 59.9236 29.4707 59.9176 29.4607 59.9017C29.4508 59.8857 29.4408 59.8798 29.4408 59.8917C29.4388 59.9037 29.4548 59.9256 29.4727 59.9415C29.4926 59.9594 29.5026 59.9614 29.4946 59.9455C29.4867 59.9335 29.4867 59.9216 29.4966 59.9216C29.5046 59.9216 29.5305 59.9415 29.5983 60.0111L29.8395 59.8619L30.1345 60.0748C30.296 60.1902 30.4475 60.3057 30.4714 60.3276C30.4954 60.3514 30.5133 60.3773 30.5113 60.3892C30.5093 60.4012 30.3957 60.4748 30.2581 60.5564C30.1206 60.638 30.007 60.7037 30.003 60.7057C30.001 60.7076 30.0169 60.7753 30.0388 60.8569C30.0608 60.9385 30.0867 61.0937 30.0987 61.1992C30.1126 61.3345 30.1126 61.4559 30.0967 61.5972C30.0847 61.7106 30.0528 61.8778 30.0269 61.9713C29.999 62.0649 29.9372 62.2221 29.8873 62.3196C29.8395 62.4171 29.7518 62.5604 29.694 62.638C29.6382 62.7136 29.5365 62.8291 29.4707 62.8967C29.4049 62.9624 29.2694 63.0699 29.1717 63.1355C29.072 63.2012 28.9105 63.2868 28.8129 63.3286C28.7152 63.3684 28.5437 63.4201 28.4341 63.446C28.3245 63.4699 28.153 63.4938 28.0553 63.4977C27.9397 63.5037 27.8401 63.4977 27.7723 63.4818C27.7165 63.4659 27.6726 63.448 27.6786 63.438C27.6826 63.4301 27.5271 63.3107 27.3337 63.1714C27.1383 63.0321 26.8034 62.7932 26.5901 62.64C26.3768 62.4848 26.1875 62.3594 26.1715 62.3594C26.1536 62.3594 26.1137 62.3017 26.0738 62.2201C26.036 62.1425 25.9841 61.9952 25.9582 61.8917C25.9323 61.7883 25.9064 61.6171 25.8984 61.5136C25.8924 61.4082 25.8964 61.249 25.9104 61.1554C25.9223 61.0619 25.9443 60.9365 25.9602 60.8768C25.9762 60.8171 25.9941 60.7534 26.0001 60.7375C26.0081 60.7156 25.9263 60.6579 25.6871 60.5206C25.5097 60.4191 25.0911 60.1783 24.7562 59.9852C24.4212 59.7942 23.7893 59.43 23.3508 59.1753C22.9122 58.9226 22.2205 58.5225 21.8158 58.2897C21.4111 58.0549 20.7951 57.7026 20.4503 57.5036C20.1054 57.3046 19.5213 56.9703 19.1545 56.7593C18.7877 56.5464 18.1458 56.1763 17.7292 55.9355C17.3125 55.6947 16.9557 55.4877 16.9378 55.4757C16.9178 55.4638 16.9079 55.4459 16.9178 55.4359C16.9258 55.426 16.9198 55.424 16.9079 55.43C16.8939 55.4379 16.8341 55.418 16.6726 55.3265L16.6168 55.3802C16.5869 55.4101 16.563 55.426 16.563 55.4141C16.565 55.4021 16.5132 55.3544 16.4494 55.3066C16.3856 55.2568 16.3298 55.2111 16.3238 55.2051C16.3178 55.1991 16.246 55.1434 16.1643 55.0837C16.0826 55.024 15.9749 54.9504 15.9251 54.9205C15.8753 54.8927 15.7955 54.8369 15.7457 54.7971C15.6958 54.7593 15.3689 54.5185 15.0181 54.2638C14.6672 54.0091 14.0253 53.5454 13.5927 53.2329C13.1601 52.9205 12.608 52.5245 12.3667 52.3513C12.1255 52.1782 11.9202 52.025 11.9082 52.013C11.8983 51.9991 11.7388 51.8817 11.5574 51.7523C11.374 51.621 10.9015 51.2807 10.5068 50.9961C10.1121 50.7115 9.79516 50.4707 9.80114 50.4628C9.80911 50.4528 10.0902 50.606 10.4271 50.8011C10.774 51.0021 11.0331 51.1633 11.0251 51.1752C11.0172 51.1871 11.0211 51.1891 11.0371 51.1792C11.051 51.1712 11.2025 51.2468 11.4159 51.3662C11.6092 51.4777 11.98 51.6926 12.2372 51.8419C12.4943 51.9911 12.883 52.214 13.493 52.5583L13.6505 52.4329C13.7363 52.3653 13.8878 52.2677 13.9834 52.218C14.0811 52.1663 14.2286 52.1026 14.3104 52.0747C14.3921 52.0469 14.5097 52.015 14.5695 52.0051C14.6293 51.9931 14.7609 51.9772 14.8586 51.9712C14.9582 51.9633 15.1137 51.9672 15.2074 51.9792C15.3011 51.9911 15.3789 51.9971 15.3789 51.9951Z" fill="#6172F3"/>
<path fill-rule="evenodd" clip-rule="evenodd" d="M27.9756 0.5C28.0195 0.5 28.1311 0.50796 28.2248 0.517911C28.3185 0.527861 28.462 0.555722 28.5438 0.575623C28.6255 0.597514 28.7611 0.643285 28.8428 0.677116C28.9245 0.710948 29.0681 0.788561 29.1617 0.850253C29.2554 0.911945 29.399 1.02936 29.4827 1.11294C29.5664 1.19653 29.684 1.33981 29.7458 1.43334C29.8076 1.52688 29.8834 1.6622 29.9173 1.73584C29.9512 1.81146 30.001 1.94877 30.0289 2.0443C30.0568 2.14181 30.0847 2.27315 30.1027 2.45823L30.306 2.57764C30.4156 2.64132 30.7685 2.84431 31.0854 3.0254C31.4024 3.20849 31.9506 3.52292 32.3015 3.72591C32.6523 3.9289 33.2085 4.2493 33.5374 4.43835C33.8663 4.6294 34.4803 4.98164 34.9029 5.22443C35.3256 5.46523 35.9176 5.80752 36.2186 5.98265C36.5196 6.15977 36.8207 6.3329 36.8864 6.36872C36.9522 6.40654 37.3968 6.66127 37.8732 6.9359C38.3496 7.21252 38.9736 7.57073 39.2587 7.73591C39.5437 7.89909 40.078 8.20556 40.4448 8.41651C40.8116 8.62945 41.3379 8.93194 41.611 9.09114C41.8861 9.24836 42.5 9.60259 42.9765 9.87523C43.4529 10.1499 44.0231 10.4782 44.2423 10.6076C44.4616 10.7349 44.8125 10.9379 45.0198 11.0553C45.2271 11.1728 45.6418 11.4096 45.9368 11.5827C46.2318 11.7539 46.7003 12.0225 46.9734 12.1797C47.2485 12.337 47.6831 12.5877 47.9402 12.737C48.1974 12.8862 48.634 13.137 48.9071 13.2942C49.1822 13.4514 49.7005 13.7499 50.0633 13.9609C50.4261 14.1698 50.9942 14.5002 51.3291 14.6912C51.664 14.8842 52.0388 15.0992 52.3857 15.3042L52.4993 15.2027C52.5631 15.1449 52.6687 15.0634 52.7345 15.0196C52.8003 14.9738 52.9259 14.9041 53.0136 14.8643C53.1013 14.8226 53.2409 14.7708 53.3226 14.7489C53.4043 14.725 53.5658 14.6972 53.6814 14.6832C53.8429 14.6653 53.9366 14.6653 54.0901 14.6832C54.1997 14.6952 54.3472 14.7211 54.419 14.739C54.4908 14.7569 54.6243 14.8046 54.718 14.8444C54.8117 14.8842 54.9553 14.9619 55.037 15.0156C55.1187 15.0693 55.2583 15.1828 55.346 15.2663C55.4337 15.3499 55.5513 15.4852 55.6071 15.5649C55.6629 15.6464 55.7387 15.7678 55.7726 15.8355C55.8065 15.9052 55.8563 16.0265 55.8842 16.1042C55.9101 16.1838 55.948 16.339 55.9679 16.4484C55.9859 16.5579 56.0018 16.7052 55.9998 16.7768C55.9998 16.8484 55.9899 16.9738 55.9779 17.0554C55.9639 17.137 55.936 17.2723 55.9141 17.3539C55.8902 17.4355 55.8284 17.5927 55.7746 17.7022C55.7227 17.8116 55.641 17.9509 55.5971 18.0107C55.5513 18.0704 55.4536 18.1818 55.3799 18.2574C55.3061 18.3311 55.1925 18.4306 55.1267 18.4783C55.0609 18.5261 54.9353 18.5997 54.8476 18.6455C54.7599 18.6893 54.6164 18.747 54.5287 18.7768C54.4409 18.8047 54.3532 18.8266 54.3333 18.8266C54.3014 18.8266 54.2994 19.4475 54.3094 44.403L54.4788 44.4528C54.5725 44.4786 54.724 44.5383 54.8177 44.5841C54.9114 44.6299 55.0549 44.7174 55.1367 44.7791C55.2184 44.8408 55.344 44.9523 55.4157 45.0279C55.4875 45.1035 55.5832 45.2189 55.6271 45.2846C55.6729 45.3503 55.7367 45.4597 55.7726 45.5274C55.8065 45.597 55.8563 45.7184 55.8842 45.7961C55.9101 45.8757 55.948 46.0309 55.9679 46.1403C55.9859 46.2498 56.0018 46.397 55.9998 46.4687C55.9998 46.5403 55.9899 46.6657 55.9779 46.7473C55.9659 46.8289 55.9321 46.9742 55.9041 47.0697C55.8762 47.1672 55.8224 47.3105 55.7825 47.3881C55.7427 47.4677 55.6709 47.5911 55.6251 47.6627C55.5772 47.7344 55.4815 47.8498 55.4118 47.9214C55.344 47.9931 55.2224 48.0986 55.1466 48.1583C55.0709 48.216 54.9253 48.3015 54.8277 48.3513C54.73 48.3991 54.5725 48.4608 54.4788 48.4866C54.3851 48.5125 54.2157 48.5443 54.1001 48.5583C53.9446 48.5742 53.8389 48.5762 53.6914 48.5583C53.5818 48.5463 53.4203 48.5185 53.3326 48.4966C53.2449 48.4747 53.0874 48.415 52.9837 48.3672C52.88 48.3175 52.7365 48.2359 52.6648 48.1841C52.593 48.1324 52.4794 48.0389 52.286 47.8617L51.8414 48.1185C51.5982 48.2578 50.9284 48.6438 50.3523 48.9762C49.7762 49.3065 49.0227 49.7424 48.6778 49.9414C48.3329 50.1424 47.8027 50.4468 47.5017 50.618C47.2007 50.7911 46.7422 51.0538 46.485 51.2051C46.2278 51.3563 45.6796 51.6707 45.269 51.9076C44.8583 52.1424 44.2742 52.4767 43.9732 52.6519C43.6722 52.827 43.0403 53.1912 42.5678 53.4638C42.0954 53.7364 41.5053 54.0767 41.2521 54.22C40.999 54.3653 40.4428 54.6857 40.0162 54.9325C39.5896 55.1792 39.0095 55.5136 38.7304 55.6748C38.4513 55.836 37.8433 56.1862 37.3788 56.4529C36.9163 56.7196 36.5296 56.9365 36.5176 56.9365C36.5057 56.9365 36.5017 56.9305 36.5057 56.9206C36.5117 56.9126 36.4379 56.8529 36.3442 56.7872C36.2525 56.7215 36.111 56.6161 36.0332 56.5544C35.9535 56.4907 35.8777 56.439 35.8658 56.439C35.8518 56.439 35.8399 56.433 35.8399 56.423C35.8379 56.4151 36.0552 56.2837 36.3223 56.1285C36.5894 55.9733 37.0758 55.6927 37.4047 55.5036C37.7337 55.3126 38.3178 54.9782 38.7005 54.7573C39.0852 54.5364 39.6534 54.2081 39.9664 54.027C40.2793 53.8459 40.7059 53.6011 40.9132 53.4837C41.1206 53.3643 41.5252 53.1315 41.8103 52.9663C42.0954 52.7991 42.5838 52.5185 42.8968 52.3394C43.2097 52.1623 43.6443 51.9115 43.8636 51.7822C44.0829 51.6528 44.5174 51.4021 44.8304 51.225C45.1434 51.0459 45.6099 50.7772 45.867 50.6279C46.1242 50.4767 46.5069 50.2578 46.7142 50.1404C46.9216 50.021 47.388 49.7523 47.7509 49.5434C48.1137 49.3324 48.634 49.0339 48.9071 48.8767C49.1822 48.7215 49.5031 48.5344 49.6247 48.4627C49.7463 48.3911 50.2666 48.0906 50.7809 47.7961C51.2952 47.4995 51.7557 47.2369 51.8036 47.211C51.8494 47.1851 51.8873 47.1592 51.8873 47.1493C51.8873 47.1413 51.8694 47.0677 51.8474 46.9861C51.8255 46.9045 51.8076 46.813 51.8076 46.7811C51.8076 46.7334 51.7996 46.7274 51.7238 46.7174C51.676 46.7115 50.5577 46.6279 49.236 46.5284C47.9143 46.4309 46.2956 46.3095 45.6378 46.2597C44.9799 46.21 43.9932 46.1383 43.445 46.1005C42.8968 46.0607 41.6668 45.9712 40.7139 45.9015C39.761 45.8299 38.9477 45.7722 38.9098 45.7722C38.842 45.7722 38.838 45.7761 38.7922 45.8956C38.7663 45.9652 38.7065 46.0846 38.6606 46.1602C38.6128 46.2359 38.5171 46.3572 38.4473 46.4269C38.3796 46.4966 38.2679 46.5901 38.2021 46.6339C38.1363 46.6796 38.0387 46.7354 37.9828 46.7592C37.929 46.7831 37.8333 46.817 37.7735 46.8349C37.7137 46.8528 37.5881 46.8767 37.4944 46.8886C37.3689 46.9045 37.2811 46.9025 37.1556 46.8846C37.0619 46.8707 36.9602 46.8587 36.9303 46.8587C36.8765 46.8568 36.8565 46.8846 36.6034 47.3244C36.4559 47.5811 36.097 48.2001 35.81 48.6976C35.5229 49.1951 35.1701 49.8041 35.0285 50.0508C34.887 50.2976 34.6358 50.7314 34.4704 51.016C34.3049 51.3006 33.9859 51.8518 33.7607 52.2399C33.5354 52.628 33.3042 53.03 33.2464 53.1315C33.1866 53.2329 33.1307 53.3086 33.1208 53.3006C33.1108 53.2907 33.1088 53.2966 33.1148 53.3086C33.1228 53.3225 33.061 53.4538 32.9772 53.5971C32.8935 53.7424 32.7899 53.9215 32.6702 54.1305L32.4769 53.9852C32.3692 53.9056 32.2237 53.8001 32.1519 53.7524C32.0802 53.7046 32.0204 53.6648 32.0164 53.6648C32.0144 53.6628 32.1619 53.3981 32.3473 53.0757C32.5307 52.7533 32.8357 52.224 33.0231 51.9016C33.2105 51.5792 33.5314 51.024 33.7388 50.6677C33.9441 50.3115 34.283 49.7264 34.4903 49.3642C34.6976 49.0021 35.0265 48.4349 35.2219 48.1006C35.4153 47.7662 35.7163 47.2488 36.1987 46.409L36.113 46.3035C36.0671 46.2478 35.9993 46.1503 35.9655 46.0906C35.9316 46.0309 35.8797 45.9115 35.8518 45.8259C35.8239 45.7423 35.8 45.6528 35.8 45.6269C35.8 45.603 35.792 45.5712 35.7841 45.5592C35.7741 45.5413 35.3854 45.5055 34.4604 45.4339C33.7388 45.3801 33.1307 45.3343 33.1088 45.3343C33.0789 45.3343 33.061 45.3582 33.037 45.4378C33.0191 45.4955 32.9673 45.615 32.9234 45.7025C32.8816 45.7901 32.8018 45.9194 32.75 45.9911C32.6982 46.0627 32.5885 46.1841 32.5088 46.2597C32.427 46.3373 32.3074 46.4369 32.2417 46.4806C32.1759 46.5264 32.0583 46.5941 31.9825 46.6319C31.9068 46.6717 31.7712 46.7254 31.6835 46.7533C31.5958 46.7811 31.4801 46.809 31.4243 46.817C31.3705 46.8229 31.3147 46.8349 31.3027 46.8428C31.2908 46.8508 31.1413 47.5652 30.9698 48.4289C30.7984 49.2926 30.5572 50.5165 30.4356 51.1454C30.314 51.7742 30.2083 52.2956 30.2003 52.3056C30.1944 52.3135 30.0389 52.212 29.8555 52.0807C29.6701 51.9494 29.5126 51.8459 29.5006 51.8518C29.4887 51.8578 29.4807 51.8499 29.4807 51.8359C29.4807 51.824 29.5744 51.3384 29.69 50.7573C29.8036 50.1762 29.9691 49.3304 30.0568 48.8767C30.1445 48.4229 30.2741 47.7622 30.4675 46.7712L30.3877 46.7473C30.3439 46.7354 30.2263 46.6836 30.1286 46.6359C30.0309 46.5881 29.8953 46.5085 29.8296 46.4587C29.7638 46.409 29.704 46.3692 29.696 46.3692C29.686 46.3692 29.3272 46.5682 28.8986 46.813C28.468 47.0578 27.6806 47.5055 27.1483 47.806C26.6161 48.1085 25.9881 48.4647 25.7529 48.5961C25.4499 48.7672 25.3203 48.8309 25.3124 48.813C25.3044 48.7991 25.1569 48.6856 24.9834 48.5603C24.808 48.4349 24.6565 48.3254 24.6465 48.3175C24.6366 48.3095 24.8778 48.1622 25.1848 47.9891C25.4918 47.818 26.1915 47.4219 26.7397 47.1095C27.2879 46.799 28.0594 46.3592 29.1757 45.7224L29.1119 45.5732C29.076 45.4916 29.0282 45.3483 29.0043 45.2547C28.9823 45.1612 28.9624 45.0697 28.9624 45.0498C28.9624 45.0259 28.9464 45.0159 28.9086 45.0159C28.8767 45.0159 28.3544 44.9801 27.7464 44.9363C27.1384 44.8926 26.0918 44.8149 25.424 44.7672C24.7562 44.7174 23.0737 44.5921 21.6862 44.4886C20.233 44.3791 19.1565 44.3075 19.1446 44.3174C19.1326 44.3274 19.0648 44.2876 18.9731 44.212C18.8894 44.1463 18.6223 43.9473 18.3791 43.7721C18.1359 43.597 17.7691 43.3323 17.5637 43.1851C17.3584 43.0358 17.0753 42.8308 16.9318 42.7274C16.7883 42.6239 16.6826 42.5522 16.6926 42.5681C16.7085 42.592 16.7065 42.594 16.6766 42.5781C16.6567 42.5662 16.5331 42.3711 16.4015 42.1403C16.27 41.9094 16.0188 41.4756 15.8454 41.1751C15.6699 40.8746 15.5164 40.6119 15.5025 40.592C15.4766 40.5562 15.4726 40.5562 15.347 40.59C15.2573 40.6139 15.1437 40.6258 14.9782 40.6258C14.8127 40.6258 14.6951 40.6139 14.5994 40.59C14.5237 40.5701 14.3802 40.5164 14.2805 40.4686C14.1808 40.4209 14.0453 40.3353 13.8519 40.1801L13.7223 40.2497C13.5987 40.3174 13.5907 40.3174 13.5549 40.2835C13.5329 40.2656 13.3774 40.1522 13.206 40.0308C13.0346 39.9094 12.895 39.8079 12.895 39.8019C12.895 39.796 13.0166 39.7223 13.1641 39.6368C13.3117 39.5532 13.4392 39.4875 13.4472 39.4915C13.4572 39.4955 13.4512 39.4398 13.4373 39.3661C13.4193 39.2806 13.4133 39.1552 13.4193 39.0059C13.4273 38.8328 13.4412 38.7373 13.4811 38.6179C13.509 38.5303 13.5668 38.395 13.6107 38.3193C13.6545 38.2437 13.7442 38.1144 13.81 38.0348C13.8778 37.9571 13.9316 37.8875 13.9316 37.8815C13.9316 37.8756 13.8399 37.7124 13.7283 37.5173C13.6187 37.3243 13.4213 36.986 13.2937 36.7671C13.1661 36.5482 12.897 36.0825 12.6957 35.7323C12.4963 35.382 12.2392 34.9382 12.1275 34.7472C12.0159 34.5561 11.7966 34.174 11.6391 33.9014C11.4837 33.6268 11.3102 33.3282 11.2564 33.2347C11.2006 33.1412 11.1547 33.0636 11.1527 33.0616C11.1527 33.0596 11.087 33.0695 11.0112 33.0855C10.9354 33.1014 10.8039 33.1153 10.7221 33.1153C10.6404 33.1153 10.5208 33.1073 10.457 33.0954C10.3633 33.0795 10.3394 33.0815 10.3175 33.1054C10.3055 33.1213 10.1779 33.3402 10.0344 33.5889C9.89286 33.8377 9.62374 34.3054 9.43436 34.6278C9.24698 34.9502 8.93002 35.5014 8.72868 35.8517C8.52734 36.2019 8.3539 36.4944 8.34194 36.5024C8.32998 36.5104 8.31603 36.5084 8.31005 36.5004C8.30407 36.4905 8.16452 36.387 8.00106 36.2696C7.8356 36.1502 7.69805 36.0507 7.69207 36.0467C7.68609 36.0447 7.83959 35.7701 8.02897 35.4397C8.22034 35.1074 8.51537 34.5999 8.68482 34.3093C8.85426 34.0188 9.13534 33.5332 9.62574 32.6775L9.53005 32.57C9.47822 32.5123 9.40446 32.4108 9.36659 32.3471C9.32871 32.2835 9.27688 32.174 9.25296 32.1043C9.22704 32.0367 9.19315 31.8974 9.17521 31.7959C9.15129 31.6645 9.14731 31.565 9.15727 31.4436C9.16525 31.3501 9.19315 31.1989 9.22106 31.1053C9.24698 31.0118 9.3008 30.8785 9.33868 30.8068C9.37655 30.7352 9.45829 30.6198 9.62574 30.4188L9.58786 30.3591C9.56793 30.3252 9.37655 29.9949 9.16126 29.6227C8.94796 29.2506 8.64296 28.7212 8.48547 28.4486C8.32599 28.174 8.00903 27.6287 7.78178 27.2346C7.55253 26.8406 7.18573 26.2038 6.96446 25.8217C6.74318 25.4376 6.37638 24.8028 6.14913 24.4087C5.91988 24.0147 5.52118 23.3241 5.26004 22.8764C4.99889 22.4266 4.69389 21.8993 4.58226 21.7022C4.46863 21.5052 4.27327 21.1649 4.1437 20.946C4.01611 20.7271 3.73503 20.2435 3.52173 19.8714C3.30644 19.4992 3.0752 19.0952 3.00343 18.9758C2.92768 18.8465 2.86389 18.7589 2.84595 18.7589C2.83199 18.7609 2.75225 18.7788 2.52898 18.8365L2.525 25.5411C2.52101 29.9889 2.51304 32.2476 2.49908 32.2536C2.48911 32.2576 2.38346 32.1899 2.26585 32.1063C2.14823 32.0208 1.98875 31.9053 1.90902 31.8516C1.83127 31.7959 1.75951 31.7541 1.74954 31.7561C1.73957 31.7601 1.7296 31.7601 1.72761 31.7561C1.72362 31.7541 1.71764 28.8466 1.70169 18.8425L1.53225 18.7927C1.43856 18.7669 1.30101 18.7151 1.22326 18.6793C1.14552 18.6435 1.02192 18.5738 0.944176 18.5241C0.86643 18.4723 0.746822 18.3788 0.677051 18.3151C0.607279 18.2514 0.499632 18.132 0.437834 18.0505C0.376037 17.9689 0.286331 17.8256 0.240481 17.732C0.192638 17.6385 0.132833 17.4912 0.106918 17.4037C0.0810032 17.3161 0.0451207 17.145 0.025186 17.0256C-0.00471601 16.8345 -0.00471601 16.7808 0.0172122 16.6077C0.0311664 16.4982 0.063062 16.327 0.0869836 16.2295C0.110905 16.13 0.162735 15.9828 0.200611 15.9012C0.236494 15.8196 0.316233 15.6803 0.376037 15.5947C0.435841 15.5071 0.549469 15.3738 0.627214 15.2962C0.704959 15.2186 0.838522 15.1051 0.926234 15.0454C1.01195 14.9857 1.15548 14.9041 1.2432 14.8643C1.33091 14.8226 1.47045 14.7708 1.55218 14.7489C1.63392 14.727 1.78143 14.6992 1.88111 14.6852C1.98078 14.6733 2.13627 14.6673 2.22996 14.6733C2.32366 14.6813 2.46121 14.6992 2.53895 14.7151C2.6167 14.731 2.75425 14.7728 2.84794 14.8066C2.94163 14.8405 3.06722 14.8962 3.12703 14.93C3.18683 14.9638 3.28052 15.0236 3.33634 15.0634C3.39016 15.1012 3.47588 15.1728 3.61543 15.3042L3.81477 15.1887C3.92441 15.1231 4.355 14.8763 4.77164 14.6375C5.18827 14.3987 5.74046 14.0803 5.99762 13.931C6.25478 13.7798 6.68936 13.529 6.96446 13.3738C7.23756 13.2166 7.73194 12.932 8.06086 12.7409C8.38979 12.5499 8.82038 12.3011 9.01773 12.1897C9.21508 12.0782 9.67757 11.8116 10.0444 11.5986C10.4112 11.3857 10.8816 11.1131 11.0909 10.9956C11.3003 10.8782 11.6491 10.6752 11.8684 10.5479C12.0877 10.4185 12.5761 10.1379 12.9548 9.92101C13.3336 9.70409 13.8539 9.40359 14.111 9.25433C14.3682 9.10308 14.7729 8.87025 15.0081 8.73691C15.2433 8.60159 15.6799 8.35084 15.9749 8.17969C16.27 8.00854 16.7065 7.7578 16.9418 7.62247C17.177 7.48914 17.5896 7.25033 17.8588 7.0951C18.1279 6.93789 18.6661 6.62743 19.0548 6.40455C19.4436 6.18166 20.0635 5.82543 20.4303 5.6125C20.7971 5.40155 21.457 5.01946 21.8955 4.76672C22.3341 4.51199 22.8863 4.19557 23.1215 4.06024C23.3568 3.92492 23.7933 3.67417 24.0884 3.50302C24.3834 3.32988 24.7342 3.12889 24.8658 3.05525C24.9974 2.98162 25.2805 2.82042 25.4938 2.69704C25.7748 2.53385 25.8865 2.45823 25.8964 2.4244C25.9044 2.39853 25.9124 2.35674 25.9124 2.32888C25.9124 2.30102 25.9323 2.2035 25.9543 2.10997C25.9782 2.01644 26.026 1.87315 26.0599 1.79156C26.0958 1.70996 26.1755 1.56071 26.2393 1.4632C26.3031 1.36369 26.4247 1.21444 26.5084 1.12886C26.5922 1.0413 26.7317 0.923885 26.8194 0.866173C26.9071 0.806471 27.0387 0.730848 27.1125 0.699007C27.1882 0.665176 27.3258 0.615424 27.4214 0.587563C27.5191 0.559702 27.6646 0.529851 27.7464 0.519901C27.8281 0.50995 27.9318 0.50199 27.9756 0.5ZM25.7011 3.507C25.5257 3.6065 25.0791 3.86521 24.7063 4.08014C24.3336 4.29706 23.8033 4.60154 23.5302 4.75677C23.2551 4.91398 22.8524 5.14483 22.6331 5.27418C22.4138 5.40354 22.0092 5.63638 21.7361 5.7916C21.461 5.94882 21.0443 6.18763 20.8091 6.32494C20.5739 6.46226 20.0257 6.77868 19.5931 7.02744C19.1605 7.27421 18.5904 7.60257 18.3272 7.75581C18.0641 7.90904 17.6794 8.12994 17.47 8.24934C17.2607 8.36676 16.9119 8.56975 16.6926 8.69711C16.4733 8.82646 15.9849 9.10706 15.6061 9.32398C15.2274 9.5409 14.7071 9.83941 14.4499 9.99066C14.1928 10.1399 13.7562 10.3907 13.4831 10.5479C13.208 10.7051 12.7116 10.9897 12.3767 11.1847C12.0418 11.3777 11.6611 11.5966 11.5295 11.6723C11.3979 11.7459 11.0252 11.9608 10.7022 12.1499C10.3793 12.337 9.8809 12.6235 9.59584 12.7867C9.31077 12.9479 8.89812 13.1867 8.67884 13.3141C8.45956 13.4434 7.89939 13.7678 7.43292 14.0345C6.96645 14.3012 6.3704 14.6454 6.10726 14.7967C5.84412 14.9479 5.28795 15.2683 4.87131 15.5091C4.45468 15.7499 4.10383 15.9529 4.09386 15.9629C4.0799 15.9748 4.08788 16.0206 4.11379 16.1002L4.15366 16.2196H17.7691C17.8069 16.1201 17.8608 16.0226 17.9146 15.941C17.9664 15.8594 18.0641 15.74 18.1299 15.6763C18.1937 15.6126 18.2914 15.531 18.3472 15.4932C18.401 15.4574 18.5047 15.3997 18.5764 15.3658C18.6482 15.332 18.7778 15.2862 18.8655 15.2644C18.9771 15.2365 19.0887 15.2245 19.2343 15.2245C19.3499 15.2245 19.4974 15.2385 19.5632 15.2544C19.6569 15.2763 19.6868 15.2783 19.6987 15.2584C19.7067 15.2444 19.928 14.8663 20.1891 14.4186C20.4483 13.9688 20.855 13.2703 21.0882 12.8663C21.3234 12.4623 21.6842 11.8355 21.8916 11.4733C22.0989 11.1111 22.4138 10.5698 22.5893 10.2693C22.7647 9.96877 22.9979 9.56478 23.1076 9.37373C23.2172 9.18269 23.5003 8.68915 23.7395 8.27919C23.9767 7.86924 24.3276 7.26426 24.517 6.9359C24.7083 6.60753 25.0632 5.98862 25.3104 5.56275C25.5556 5.13488 25.8705 4.59358 26.0081 4.35875C26.1456 4.12392 26.2692 3.91297 26.2832 3.89108C26.3051 3.85725 26.3011 3.83934 26.2473 3.76173C26.2134 3.71198 26.1476 3.59456 26.1018 3.49904L26.016 3.3259L25.7011 3.507ZM29.9352 3.44929C29.9053 3.51695 29.8415 3.63635 29.7917 3.71198L29.702 3.85128C30.2701 4.82443 30.5871 5.36971 30.7725 5.6921C30.9579 6.01648 31.2649 6.54783 31.4562 6.87619C31.6456 7.20456 32.0284 7.86327 32.3035 8.3389C32.5785 8.81651 32.8836 9.34388 32.9812 9.51304C33.0769 9.68419 33.2603 10.0006 33.3899 10.2195C33.5175 10.4384 33.8005 10.928 34.0178 11.3041C34.2331 11.6822 34.5341 12.2016 34.6856 12.4583C34.8352 12.7171 35.1521 13.2623 35.3874 13.6723C35.6246 14.0842 35.9276 14.6076 36.0611 14.8365C36.1947 15.0673 36.3103 15.2624 36.3163 15.2703C36.3243 15.2783 36.3881 15.2723 36.4598 15.2564C36.5296 15.2385 36.6831 15.2245 36.7987 15.2245C36.9442 15.2245 37.0559 15.2365 37.1675 15.2644C37.2552 15.2882 37.3848 15.334 37.4566 15.3658C37.5263 15.3997 37.64 15.4653 37.7058 15.5131C37.7715 15.5609 37.8752 15.6504 37.937 15.7161C37.9968 15.7798 38.0805 15.8813 38.1184 15.941C38.1583 16.0027 38.2041 16.0882 38.2221 16.136L38.254 16.2196H51.8594C51.9132 16.0265 51.9272 15.9708 51.9252 15.9688C51.9212 15.9668 51.7617 15.8733 51.5703 15.7619C51.377 15.6484 50.8985 15.3718 50.5038 15.1469C50.1091 14.9201 49.4852 14.5619 49.1184 14.3509C48.7496 14.138 48.1635 13.7997 47.8126 13.5967C47.4618 13.3937 46.8817 13.0613 46.5269 12.8564C46.17 12.6534 45.568 12.3071 45.1912 12.0882C44.8125 11.8693 44.1487 11.4852 43.7161 11.2345C43.2815 10.9837 42.6854 10.6414 42.3904 10.4723C42.0934 10.3031 41.6409 10.0424 41.3837 9.89115C41.1246 9.7419 40.69 9.49115 40.4169 9.33393C40.1418 9.17871 39.7032 8.92398 39.4401 8.77074C39.1769 8.61751 38.7145 8.35283 38.4134 8.17969C38.1104 8.00854 37.6759 7.7578 37.4466 7.62247C37.2154 7.48914 36.7888 7.24237 36.4997 7.07719C36.2087 6.91003 35.6525 6.58962 35.2638 6.36673C34.873 6.14186 34.263 5.78961 33.9082 5.58265C33.5514 5.37767 32.9314 5.02145 32.5327 4.79259C32.132 4.56174 31.5938 4.25129 31.3366 4.10203C31.0775 3.95079 30.7007 3.73387 30.4994 3.61844C30.296 3.50302 30.0987 3.38959 30.0588 3.3677L29.987 3.32391L29.9352 3.44929ZM26.5383 5.05727C26.3629 5.35777 26.0918 5.82743 25.9363 6.10206C25.7788 6.37469 25.5456 6.77868 25.416 6.99759C25.2884 7.2165 25.0373 7.65033 24.8578 7.96277C24.6804 8.27322 24.3974 8.76278 24.2319 9.04736C24.0644 9.33194 23.8312 9.73394 23.7136 9.9429C23.594 10.1499 23.3249 10.6155 23.1136 10.9777C22.9042 11.3379 22.6531 11.7718 22.5554 11.9429C22.4597 12.1121 22.2404 12.4922 22.067 12.7887C21.8955 13.0832 21.5786 13.6305 21.3653 14.0026C21.152 14.3748 20.841 14.9121 20.6755 15.1967L20.3725 15.7141C20.4483 15.7897 20.5041 15.8673 20.546 15.933C20.5878 15.9987 20.6397 16.0902 20.6616 16.138L20.7015 16.2216L22.8943 16.2196C22.992 16.0126 23.0737 15.8853 23.1375 15.8037C23.2033 15.7201 23.3129 15.6106 23.3847 15.5569C23.4544 15.5032 23.584 15.4255 23.6717 15.3818C23.7594 15.34 23.903 15.2882 23.9907 15.2663C24.0784 15.2444 24.186 15.2245 24.2299 15.2245H24.3096C24.4292 14.725 24.6326 13.8892 24.8399 13.0474C25.0452 12.2036 25.3004 11.1568 25.4041 10.719C25.5097 10.2812 25.6353 9.75583 25.6831 9.55483C25.733 9.35184 25.9024 8.65731 26.0619 8.01253C26.2194 7.36575 26.3968 6.64136 26.4546 6.40057C26.5104 6.15977 26.642 5.61648 26.7437 5.19657C26.8453 4.77468 26.9251 4.42641 26.9231 4.42243C26.9211 4.42044 26.9051 4.43835 26.8872 4.46224C26.8693 4.48811 26.7138 4.75478 26.5383 5.05727ZM28.6753 4.59756C28.5777 4.6294 28.4381 4.66721 28.3663 4.68114C28.2966 4.69507 28.1172 4.70502 27.9677 4.70303H27.6985C27.6268 4.98562 27.5131 5.44732 27.4015 5.913C27.2879 6.37669 27.1483 6.9558 27.0925 7.19659C27.0347 7.43739 26.7875 8.45233 26.5443 9.45533C26.2991 10.4563 26.026 11.5847 25.9343 11.9628C25.8446 12.3389 25.6193 13.2663 25.434 14.0225C25.2486 14.7768 25.0971 15.3977 25.0971 15.3997C25.0971 15.4037 25.1589 15.4435 25.2326 15.4932C25.3064 15.541 25.43 15.6464 25.5057 15.726C25.5987 15.8242 25.6752 15.9317 25.735 16.0484L25.8247 16.2216H35.3335C35.4272 16.0285 35.497 15.9171 35.5488 15.8474L35.6425 15.7241C35.0903 14.7748 34.7295 14.1499 34.4823 13.724C34.2371 13.2962 33.9162 12.7409 33.7706 12.4902C33.6251 12.2374 33.3022 11.6822 33.055 11.2563C32.8078 10.8285 32.4869 10.2732 32.3433 10.0225C32.1998 9.76976 31.9068 9.26428 31.6934 8.89811C31.4782 8.52994 31.207 8.06029 31.0894 7.85332C30.9698 7.64436 30.7505 7.26426 30.599 7.00754C30.4495 6.74883 30.2023 6.32494 30.0528 6.06225C29.9013 5.79956 29.6262 5.32195 29.4408 5.00154C29.2554 4.68114 29.098 4.42044 29.09 4.42044C29.082 4.42044 29.0262 4.4483 28.9644 4.48015C28.9046 4.51199 28.775 4.56373 28.6753 4.59756ZM4.18556 17.1868C4.16562 17.2863 4.16363 17.344 4.17559 17.3539C4.18755 17.3619 4.48258 17.533 4.83344 17.734C5.18429 17.933 5.76837 18.2694 6.12919 18.4803C6.492 18.6893 6.95847 18.9599 7.1658 19.0773C7.37511 19.1947 7.80969 19.4455 8.13263 19.6346C8.45756 19.8216 8.94596 20.1042 9.21907 20.2614C9.49417 20.4166 9.96064 20.6853 10.2557 20.8584C10.5527 21.0296 11.0192 21.2983 11.2923 21.4555C11.5674 21.6107 11.9701 21.8435 12.1893 21.9729C12.4086 22.1003 12.8711 22.3669 13.216 22.5659C13.5628 22.7629 13.8579 22.9301 13.8738 22.9361C13.8938 22.944 13.9416 22.9182 14.0034 22.8684C14.0592 22.8246 14.1708 22.753 14.2526 22.7092C14.3363 22.6674 14.4699 22.6137 14.5516 22.5898C14.6353 22.5679 14.7868 22.542 14.8905 22.5361C15.0221 22.5281 15.1297 22.5341 15.2394 22.556C15.3271 22.5719 15.4128 22.5878 15.4287 22.5918C15.4467 22.5978 15.5125 22.5042 15.6141 22.3311C15.7018 22.1818 15.9171 21.8117 16.0926 21.5052C16.268 21.1987 16.5491 20.7152 16.7145 20.4306C16.882 20.146 17.1471 19.6883 17.3026 19.4156C17.4601 19.141 17.7172 18.6952 17.8747 18.4246L18.1598 17.933C17.9983 17.734 17.9166 17.6206 17.8767 17.5509C17.8348 17.4813 17.777 17.348 17.7491 17.2564C17.7212 17.1629 17.6953 17.0753 17.6893 17.0614C17.6833 17.0415 16.3178 17.0375 10.9474 17.0375H4.21347L4.18556 17.1868ZM20.7453 17.1708C20.7274 17.2445 20.6855 17.3619 20.6516 17.4335C20.6177 17.5052 20.5519 17.6166 20.5041 17.6823C20.4583 17.748 20.3626 17.8554 20.2928 17.9211C20.221 17.9888 20.1014 18.0783 20.0257 18.1241C19.9479 18.1699 19.8183 18.2296 19.7366 18.2574C19.6549 18.2833 19.5114 18.3171 19.4177 18.3291C19.324 18.343 19.1984 18.347 19.1386 18.341C19.0788 18.333 18.995 18.3231 18.9532 18.3191L18.8794 18.3092C18.6841 18.6415 18.4668 19.0156 18.2714 19.354C18.0761 19.6943 17.7073 20.3291 17.4521 20.7669C17.1989 21.2047 16.862 21.7878 16.7065 22.0604C16.5491 22.3351 16.3597 22.6634 16.2839 22.7928C16.2102 22.9202 16.1484 23.0296 16.1484 23.0356C16.1484 23.0416 16.1862 23.1013 16.2361 23.1709C16.2839 23.2386 16.3497 23.35 16.3856 23.4197C16.4195 23.4873 16.4673 23.6127 16.4912 23.6983C16.5271 23.8256 16.5351 23.8953 16.5311 24.1003C16.5291 24.2376 16.5251 24.3749 16.5231 24.4067C16.5172 24.4625 16.5311 24.4724 16.8262 24.6436C16.9956 24.7411 17.4082 24.9779 17.7431 25.1709C18.0781 25.364 18.7359 25.7441 19.2083 26.0127L20.0655 26.5043C20.2509 26.3192 20.3586 26.2257 20.4244 26.1799C20.4902 26.1321 20.6157 26.0585 20.7035 26.0147C20.7912 25.9709 20.9207 25.9172 20.9925 25.8953C21.0643 25.8714 21.2018 25.8396 21.3015 25.8217C21.3992 25.8058 21.5407 25.7918 21.6145 25.7918H21.75C21.7799 25.6764 21.8238 25.4854 21.8696 25.2943C21.9135 25.1033 21.9952 24.759 22.051 24.5281C22.1049 24.2993 22.3421 23.3261 22.5773 22.3689C22.8105 21.4117 23.0757 20.3231 23.1634 19.951C23.2511 19.5788 23.3867 19.0236 23.4624 18.7171C23.596 18.1718 23.598 18.1599 23.5601 18.1301C23.5382 18.1141 23.4564 18.0505 23.3787 17.9907C23.2989 17.9291 23.1873 17.8176 23.1295 17.742C23.0737 17.6644 22.9939 17.535 22.9541 17.4534C22.9122 17.3718 22.8664 17.2445 22.8484 17.1708L22.8165 17.0355H20.7792L20.7453 17.1708ZM25.8665 17.1808C25.8466 17.2604 25.7908 17.4017 25.7449 17.4952C25.6871 17.6106 25.6154 17.7121 25.5137 17.8196C25.434 17.9072 25.3263 18.0067 25.2785 18.0425C25.2286 18.0783 25.125 18.138 25.0492 18.1778C24.9715 18.2156 24.8598 18.2614 24.8 18.2793C24.7382 18.2952 24.6226 18.3191 24.5409 18.3311C24.4572 18.343 24.3894 18.3529 24.3874 18.3569C24.3854 18.3589 24.2718 18.8166 24.1342 19.3758C23.9967 19.9331 23.8073 20.7171 23.7136 21.1172C23.6179 21.5152 23.3707 22.5361 23.1614 23.3858C22.9541 24.2336 22.7348 25.1291 22.677 25.3759C22.6172 25.6207 22.5634 25.8595 22.5554 25.9033C22.5434 25.969 22.5474 25.9849 22.5793 25.9968C22.5992 26.0048 22.6889 26.0565 22.7767 26.1142C22.8644 26.17 22.988 26.2615 23.0538 26.3172C23.1175 26.3749 23.2272 26.4923 23.297 26.5799C23.3687 26.6675 23.4684 26.8227 23.5222 26.9282C23.576 27.0317 23.6438 27.1968 23.6717 27.2963C23.6996 27.3938 23.7335 27.569 23.7455 27.6844C23.7614 27.8356 23.7614 27.9491 23.7455 28.1023C23.7335 28.2157 23.7076 28.371 23.6877 28.4426L23.6538 28.5759C24.194 28.8904 24.7362 29.2048 25.2087 29.4755C25.6792 29.7461 26.2672 30.0844 26.5144 30.2277L26.9629 30.4884C27.0865 30.379 27.1842 30.3053 27.262 30.2536C27.3377 30.2018 27.4593 30.1362 27.5311 30.1083C27.6009 30.0785 27.7304 30.0406 27.8142 30.0247C27.8999 30.0068 28.0354 29.9929 28.1192 29.9929C28.2009 29.9929 28.3384 30.0068 28.4222 30.0247C28.5079 30.0406 28.6355 30.0785 28.7072 30.1083C28.777 30.1362 28.8906 30.1959 28.9564 30.2377C29.0222 30.2795 29.098 30.3372 29.1259 30.365L29.1757 30.4148C30.2402 29.7979 30.7127 29.5272 30.91 29.4138C31.1074 29.3023 31.5639 29.0376 31.9267 28.8287C32.2875 28.6177 32.8118 28.3152 33.0929 28.156C33.372 27.9968 33.7527 27.7759 33.9401 27.6665L34.279 27.4675C34.3806 26.9799 34.4903 26.4167 34.588 25.9033C34.6876 25.3879 34.9388 24.1162 35.1461 23.0774C35.3535 22.0366 35.6345 20.6037 35.7741 19.8933C35.9116 19.1808 36.0432 18.5042 36.0651 18.3908C36.0871 18.2753 36.101 18.1798 36.099 18.1798C36.095 18.1798 36.0332 18.142 35.9635 18.0962C35.8917 18.0505 35.7761 17.9569 35.7063 17.8893C35.6385 17.8196 35.5488 17.7141 35.509 17.6544C35.4691 17.5927 35.4073 17.4813 35.3734 17.4057C35.3375 17.3281 35.2976 17.2146 35.2817 17.1509L35.2558 17.0375H25.9024L25.8665 17.1808ZM38.3197 17.1509C38.3078 17.2126 38.254 17.3539 38.1981 17.4634C38.1343 17.5947 38.0586 17.7082 37.9789 17.7977C37.8692 17.9171 37.8593 17.935 37.8812 17.9768C37.8931 18.0007 38.0626 18.2932 38.256 18.6276C38.4493 18.9619 38.6885 19.3739 38.7842 19.543C38.8799 19.7122 39.1131 20.1161 39.3025 20.4385C39.4899 20.7609 39.7231 21.1649 39.8208 21.3341C39.9165 21.5032 40.1079 21.8356 40.2454 22.0704C40.381 22.3052 40.5046 22.5162 40.5185 22.5381C40.5425 22.5759 40.5504 22.5779 40.69 22.552C40.7857 22.5341 40.9093 22.5281 41.0368 22.5361C41.1465 22.542 41.29 22.5619 41.3558 22.5779C41.4216 22.5958 41.5571 22.6495 41.6548 22.6973C41.7545 22.747 41.8841 22.8306 41.9439 22.8843L42.0535 22.9838C43.2277 22.3132 43.8696 21.945 44.2364 21.7321C44.6032 21.5211 45.2949 21.1211 45.7713 20.8465C46.2478 20.5719 46.804 20.2515 47.0073 20.136C47.2106 20.0206 47.7489 19.7102 48.2034 19.4475C48.6579 19.1848 49.2599 18.8385 49.539 18.6753C49.8181 18.5141 50.452 18.15 50.9444 17.8654C51.4388 17.5828 51.8434 17.3499 51.8454 17.348C51.8494 17.346 51.8395 17.2743 51.8255 17.1907L51.8016 17.0355H38.3417L38.3197 17.1509ZM3.66925 18.2057C3.61543 18.2634 3.56958 18.3151 3.56958 18.3211C3.56958 18.3251 3.66726 18.4982 3.78686 18.7032C3.90647 18.9082 4.11379 19.2684 4.24736 19.5052C4.38291 19.74 4.59821 20.1122 4.72579 20.3311C4.85536 20.55 5.10654 20.9838 5.28396 21.2963C5.46337 21.6067 5.76439 22.1261 5.95177 22.4505C6.14115 22.7729 6.37439 23.1749 6.47007 23.346C6.56576 23.5152 6.81893 23.949 7.02825 24.3112C7.23955 24.6714 7.49073 25.1053 7.58642 25.2764C7.6821 25.4456 7.93328 25.8794 8.14459 26.2416C8.3559 26.6018 8.65691 27.1212 8.8124 27.3958C8.96989 27.6685 9.23502 28.1262 9.40048 28.4108C9.56593 28.6954 9.84502 29.1769 10.0204 29.4814C10.3215 30.0068 10.3414 30.0347 10.3872 30.0227C10.4152 30.0168 10.5328 30.0068 10.6464 29.9989C10.7979 29.9909 10.8976 29.9969 11.0052 30.0188C11.0889 30.0367 11.1567 30.0486 11.1587 30.0466C11.1607 30.0446 11.3461 29.7202 11.5734 29.3262C11.8006 28.9322 12.1355 28.3531 12.3169 28.0426C12.4963 27.7302 12.8292 27.157 13.0545 26.769C13.2778 26.3789 13.5648 25.8854 13.6884 25.6684C13.814 25.4515 13.9157 25.2704 13.9157 25.2665C13.9157 25.2605 13.8619 25.1908 13.7961 25.1112C13.7303 25.0316 13.6406 24.9003 13.5987 24.8187C13.5569 24.7351 13.501 24.6058 13.4771 24.5301C13.4472 24.4326 13.4313 24.3192 13.4233 24.162C13.4173 24.0008 13.4233 23.8913 13.4432 23.7938C13.4612 23.7162 13.4672 23.6465 13.4612 23.6406C13.4532 23.6326 13.0764 23.4117 12.6199 23.151C12.1654 22.8883 11.5594 22.5401 11.2743 22.3749C10.9893 22.2117 10.4431 21.8953 10.0583 21.6744C9.67558 21.4515 9.00178 21.0654 8.56322 20.8127C8.12465 20.5619 7.52462 20.2137 7.22759 20.0425C6.93256 19.8714 6.58171 19.6704 6.45014 19.5947C6.31857 19.5211 5.99164 19.3321 5.72252 19.1748C5.4554 19.0196 4.91118 18.7072 4.51647 18.4803C4.12177 18.2554 3.79284 18.0704 3.78487 18.0704C3.7769 18.0704 3.76892 18.0783 3.76892 18.0863C3.76892 18.0942 3.72507 18.148 3.66925 18.2057ZM50.8946 18.8286C50.5278 19.0415 49.9636 19.3659 49.6387 19.551C49.3157 19.736 48.8094 20.0286 48.5124 20.1997C48.2173 20.3729 47.719 20.6594 47.406 20.8385C47.095 21.0157 46.6584 21.2664 46.4391 21.3958C46.2199 21.5231 45.7853 21.7739 45.4723 21.953C45.1613 22.1301 44.6949 22.3988 44.4357 22.55C44.1786 22.6993 43.8058 22.9142 43.6084 23.0276C43.4111 23.1391 43.0762 23.3321 42.8609 23.4575L42.4721 23.6824C42.51 23.8913 42.522 24.0127 42.522 24.0863C42.522 24.16 42.51 24.2853 42.4941 24.365C42.4781 24.4446 42.4462 24.564 42.4243 24.6296C42.4004 24.6953 42.3545 24.7968 42.3206 24.8585C42.2868 24.9182 42.215 25.0237 42.1612 25.0913L42.0635 25.2167C42.3147 25.6545 42.4941 25.963 42.6236 26.1819C42.7512 26.4008 43.0622 26.9381 43.3154 27.3759C43.5666 27.8137 43.9413 28.4625 44.1487 28.8187C44.354 29.173 44.6052 29.6088 44.7068 29.7839C44.8464 30.0247 44.9002 30.1003 44.9281 30.0984C44.948 30.0964 45.0278 30.0745 45.1035 30.0506C45.1972 30.0227 45.3208 30.0048 45.4723 29.9989L45.7016 29.9889C46.1481 29.2128 46.4132 28.7551 46.5807 28.4705C46.7461 28.1859 47.0113 27.7282 47.1668 27.4555C47.3242 27.1809 47.6253 26.6615 47.8346 26.3013C48.0459 25.9391 48.2971 25.5053 48.3927 25.3361C48.4904 25.165 48.7416 24.7291 48.9549 24.365C49.1662 24.0008 49.4174 23.5669 49.5131 23.3998C49.6068 23.2326 49.8938 22.7391 50.147 22.3012C50.4022 21.8634 50.7829 21.2047 50.9962 20.8385C51.2075 20.4704 51.5664 19.8495 51.7936 19.4554C52.0209 19.0614 52.2601 18.6435 52.3259 18.5301L52.4455 18.3211C52.272 18.1261 52.2162 18.0704 52.2102 18.0723C52.2063 18.0723 52.0567 18.1559 51.8813 18.2594C51.7059 18.3609 51.2633 18.6176 50.8946 18.8286ZM52.4574 19.9231C52.1823 20.3987 51.8993 20.8863 51.8275 21.0077C51.7557 21.1271 51.5345 21.5132 51.3331 21.8634C51.1318 22.2137 50.8607 22.6833 50.7291 22.9082C50.5975 23.1311 50.3643 23.5351 50.2128 23.8038C50.0593 24.0704 49.7603 24.5858 49.551 24.948C49.3396 25.3082 49.1064 25.7122 49.0327 25.8436C48.9569 25.9749 48.6878 26.4406 48.4346 26.8784C48.1795 27.3162 47.8924 27.8118 47.7967 27.9829C47.699 28.1521 47.5156 28.4705 47.386 28.6894C47.2585 28.9083 47.0073 29.3421 46.8279 29.6546C46.6505 29.965 46.493 30.2357 46.481 30.2536C46.4631 30.2834 46.487 30.3173 46.6285 30.4645C46.7222 30.562 46.8279 30.6894 46.8638 30.7491C46.8996 30.8088 46.9555 30.9342 46.9874 31.0277C47.0192 31.1193 47.0571 31.2625 47.0691 31.3461C47.083 31.4277 47.087 31.5611 47.081 31.6446C47.0751 31.7262 47.0551 31.8516 47.0372 31.9233C47.0192 31.9929 46.9814 32.1063 46.9535 32.172C46.9256 32.2377 46.8717 32.3392 46.8339 32.4009C46.794 32.4606 46.6943 32.578 46.6106 32.6636L46.4591 32.8168C46.7661 33.3501 47.0093 33.768 47.1987 34.0924C47.3861 34.4148 47.6512 34.8705 47.7847 35.1074C47.9203 35.3422 48.2393 35.8934 48.4924 36.3313C48.7476 36.7691 49.1602 37.4795 49.4094 37.9134C49.6606 38.3452 49.9736 38.8865 50.1051 39.1174C50.2347 39.3462 50.5158 39.8298 50.7251 40.192C50.9364 40.5522 51.2374 41.0716 51.3929 41.3462C51.5504 41.6189 51.7517 41.9691 51.8414 42.1224C51.9332 42.2756 52.2142 42.7632 52.4694 43.207C52.7246 43.6488 52.9957 44.1164 53.0714 44.2458L53.207 44.4806L53.4761 44.405V18.8425C53.2389 18.7689 53.1611 18.749 53.1492 18.749C53.1392 18.749 53.0914 18.8166 53.0435 18.9022C52.9957 18.9878 52.7305 19.4455 52.4574 19.9231ZM36.6432 19.6445C36.5775 19.9768 36.4519 20.6276 36.3622 21.0873C36.2744 21.547 36.0093 22.8903 35.7741 24.0724C35.5408 25.2545 35.3176 26.3769 35.2797 26.57C35.2438 26.761 35.2159 26.9202 35.2199 26.9222C35.2239 26.9242 35.5648 26.7311 35.9794 26.4923C36.3921 26.2535 36.9781 25.9152 37.2792 25.7421C37.5822 25.5689 37.8612 25.4097 37.9031 25.3859C37.943 25.364 37.9769 25.3321 37.9769 25.3162C37.9789 25.2983 37.9111 24.9281 37.8294 24.4903C37.7476 24.0525 37.5423 22.954 37.3728 22.0525C37.2014 21.149 37.008 20.1062 36.9403 19.7341C36.8745 19.3619 36.8127 19.0395 36.8027 19.0176C36.7888 18.9858 36.7828 18.9838 36.7748 19.0077C36.7688 19.0236 36.709 19.3102 36.6432 19.6445ZM37.8373 20.152C37.925 20.6117 38.1084 21.5828 38.244 22.3112C38.3815 23.0376 38.545 23.9152 38.6068 24.2615C38.6706 24.6058 38.7244 24.8923 38.7284 24.8983C38.7304 24.9023 38.8919 24.8187 39.0832 24.7092L39.4341 24.5102C39.4181 24.4008 39.4082 24.2814 39.4002 24.1719C39.3902 24.0187 39.3962 23.9331 39.4221 23.8038C39.4401 23.7102 39.4799 23.5749 39.5098 23.5052C39.5378 23.4336 39.5956 23.3222 39.6394 23.2565C39.6813 23.1908 39.7451 23.1052 39.783 23.0674L39.8487 22.9978C39.3683 22.1639 39.0434 21.6047 38.8181 21.2167C38.5928 20.8266 38.252 20.2356 38.0606 19.9032C37.8692 19.5689 37.7058 19.2863 37.6958 19.2763C37.6838 19.2624 37.6778 19.2664 37.6778 19.2863C37.6778 19.3022 37.7496 19.6923 37.8373 20.152ZM15.8394 25.3938C15.7636 25.4436 15.6241 25.5132 15.5304 25.5471C15.4387 25.5829 15.2852 25.6207 15.1915 25.6346C15.0918 25.6486 14.9563 25.6545 14.8586 25.6466C14.7669 25.6386 14.6832 25.6286 14.6692 25.6247C14.6533 25.6187 14.6174 25.6625 14.5755 25.7381C14.5396 25.8078 14.2606 26.2933 13.9556 26.8187C13.6525 27.3441 13.2718 28.0008 13.1103 28.2814C12.9489 28.56 12.604 29.1551 12.3468 29.6048C12.0877 30.0526 11.8724 30.4327 11.8664 30.4506C11.8624 30.4665 11.9023 30.5342 11.9541 30.5999C12.0059 30.6655 12.0837 30.7909 12.1255 30.8785C12.1714 30.974 12.2192 31.1153 12.2452 31.2367C12.2771 31.3919 12.283 31.4755 12.2751 31.6247C12.2691 31.7282 12.2452 31.8854 12.2212 31.973C12.1993 32.0606 12.1455 32.1979 12.1016 32.2815C12.0578 32.3631 11.984 32.4745 11.9342 32.5302L11.8445 32.6297C12.4545 33.6924 12.8053 34.3014 13.0186 34.6696C13.2319 35.0357 13.5389 35.5691 13.7044 35.8536C13.8698 36.1382 14.1529 36.6298 14.3363 36.9482L14.6692 37.5253C15.1656 37.5253 15.2772 37.5353 15.3709 37.5611C15.4427 37.581 15.5723 37.6308 15.66 37.6746C15.7477 37.7164 15.8753 37.796 15.945 37.8517C16.0128 37.9074 16.0746 37.9532 16.0786 37.9532C16.0846 37.9532 16.4773 37.7303 16.9517 37.4576C17.4262 37.185 17.8787 36.9263 17.9584 36.8805C18.0781 36.8109 18.1 36.793 18.086 36.7631C18.0761 36.7432 18.0521 36.6636 18.0362 36.584C18.0163 36.5024 18.0023 36.3512 18.0023 36.2357C18.0023 36.0984 18.0163 35.981 18.0422 35.8735C18.0641 35.786 18.1239 35.6288 18.1757 35.5253C18.2555 35.3681 18.3013 35.3044 18.4508 35.1531C18.5764 35.0278 18.6761 34.9482 18.7798 34.8904C18.8635 34.8447 19.001 34.785 19.0887 34.7571C19.1824 34.7273 19.318 34.7014 19.4177 34.6954L19.5871 34.6835C19.6449 34.4487 19.7765 33.9054 19.918 33.3263C20.0576 32.7452 20.2948 31.774 20.4443 31.167C20.5918 30.5581 20.7274 30.0088 20.7433 29.9431C20.7593 29.8775 20.7672 29.8158 20.7633 29.8078C20.7573 29.7998 20.7154 29.774 20.6696 29.7501C20.6217 29.7282 20.5181 29.6625 20.4383 29.6068C20.3566 29.5511 20.221 29.4337 20.1373 29.3461C20.0536 29.2585 19.938 29.1153 19.8801 29.0277C19.8243 28.9401 19.7506 28.8048 19.7187 28.7292C19.6868 28.6516 19.6409 28.5182 19.617 28.4307C19.5851 28.3113 19.5712 28.1919 19.5632 27.963C19.5552 27.7043 19.5612 27.6227 19.5931 27.4655C19.615 27.36 19.6389 27.2605 19.6449 27.2406C19.6549 27.2127 19.619 27.1829 19.4735 27.0993C19.3718 27.0396 18.9612 26.8048 18.5605 26.5739C18.1618 26.3451 17.6714 26.0645 17.474 25.9491C17.2767 25.8336 16.8939 25.6127 16.6228 25.4575C16.3517 25.3023 16.1225 25.1769 16.1125 25.1769C16.1045 25.1769 16.0706 25.2048 16.0387 25.2386C16.0068 25.2724 15.9171 25.3421 15.8394 25.3938ZM39.3783 25.4635C39.1291 25.6068 38.9158 25.7301 38.9038 25.7361C38.8919 25.7461 38.8939 25.8018 38.9098 25.8953C38.9238 25.9769 39.0872 26.8486 39.2726 27.8337C39.458 28.8187 39.6833 30.0227 39.771 30.5103C39.8607 30.9959 40.0281 31.8974 40.1438 32.5103C40.2574 33.1233 40.4587 34.188 40.5883 34.8785C40.7179 35.5671 40.8814 36.4427 40.9511 36.8228L41.0767 37.5134C41.2621 37.5432 41.3219 37.5492 41.3259 37.5452C41.3319 37.5432 41.4256 37.384 41.5352 37.193C41.6429 37.0039 41.8681 36.6158 42.0356 36.3313C42.201 36.0467 42.4821 35.5571 42.6615 35.2467C42.8409 34.9342 43.1101 34.4686 43.2596 34.2118C43.4111 33.9531 43.6084 33.6128 43.6981 33.4556C43.7878 33.2964 43.9513 33.0138 44.0589 32.8287L44.2563 32.4904C44.1168 32.2437 44.053 32.1004 44.0231 32.0128C43.9772 31.8715 43.9712 31.8198 43.9692 31.565C43.9672 31.3143 43.9732 31.2566 44.0151 31.1272C44.041 31.0436 44.0888 30.9242 44.1227 30.8586C44.1546 30.7929 44.1985 30.7133 44.2204 30.6834L44.2563 30.6297C43.6343 29.5411 43.3592 29.0655 43.2436 28.8685C43.128 28.6715 42.8489 28.1879 42.6217 27.7938C42.3944 27.3998 42.0475 26.7988 41.8522 26.4605C41.6548 26.1202 41.4634 25.7898 41.4276 25.7242L41.3618 25.6048C41.1166 25.6466 40.987 25.6525 40.8774 25.6466C40.7797 25.6406 40.6362 25.6187 40.5584 25.5988C40.4827 25.5769 40.3611 25.5351 40.2893 25.5033C40.2195 25.4714 40.086 25.3898 39.9963 25.3242L39.8328 25.2028L39.3783 25.4635ZM36.3243 27.2247C35.9116 27.4635 35.4511 27.7282 35.2996 27.8157C35.1461 27.9013 35.0186 27.9809 35.0126 27.9929C35.0066 28.0028 34.877 28.6337 34.7255 29.3959C34.576 30.1561 34.3667 31.2128 34.261 31.7441C34.1554 32.2735 34.0697 32.7272 34.0697 32.7491C34.0697 32.777 34.1135 32.8148 34.2252 32.8825C34.3109 32.9322 34.4424 33.0277 34.5202 33.0914C34.5959 33.1551 34.7195 33.2845 34.7933 33.376C34.875 33.4775 34.9727 33.6307 35.0385 33.7641C35.0963 33.8835 35.1661 34.0546 35.188 34.1422C35.2219 34.2636 35.2339 34.377 35.2398 34.6198C35.2458 34.8327 35.2418 34.986 35.2239 35.0835L35.198 35.2288C35.6306 35.4775 35.9356 35.6546 36.1548 35.784C36.3741 35.9114 36.7768 36.1442 37.0519 36.3014C37.325 36.4566 37.8453 36.7571 38.2081 36.9661C38.5689 37.177 38.9417 37.392 39.0354 37.4437C39.1271 37.4955 39.3583 37.6308 39.5477 37.7402L39.8926 37.9432C39.9763 37.8616 40.066 37.796 40.1458 37.7462L40.2913 37.6547C40.2614 37.5233 40.1797 37.0994 40.0919 36.6298C40.0042 36.1581 39.8148 35.1511 39.6733 34.3909C39.5298 33.6287 39.3185 32.4964 39.2048 31.8735C39.0892 31.2486 38.862 30.0267 38.6985 29.157C38.535 28.2854 38.3437 27.2744 38.2779 26.9083C38.2101 26.5401 38.1503 26.2297 38.1463 26.2157C38.1403 26.2018 38.1304 26.1918 38.1224 26.1938C38.1144 26.1938 37.8752 26.3292 37.5901 26.4943C37.3051 26.6595 36.7349 26.9879 36.3243 27.2247ZM32.5965 29.374C32.1838 29.6128 31.5738 29.965 31.2409 30.1561C30.906 30.3471 30.4077 30.6357 30.1346 30.7949C29.702 31.0456 29.6362 31.0894 29.6382 31.1292C29.6382 31.1551 29.6521 31.2606 29.6661 31.366C29.686 31.5153 29.686 31.5909 29.6681 31.7242C29.6541 31.8158 29.6382 31.9193 29.6322 31.9531L29.6202 32.0128C30.6369 32.6019 31.0974 32.8685 31.3007 32.982L31.6695 33.1909C31.9307 32.978 32.0842 32.8785 32.1779 32.8307C32.2696 32.783 32.4231 32.7213 32.5168 32.6914C32.6085 32.6636 32.744 32.6317 32.8158 32.6198C32.8855 32.6078 33.0191 32.5999 33.1088 32.5999C33.2623 32.5999 33.2743 32.5959 33.2842 32.5541C33.2882 32.5302 33.3919 31.9989 33.5115 31.376C33.6331 30.7511 33.8065 29.8595 33.9002 29.3959C33.9939 28.9302 34.0717 28.5481 34.0717 28.5441C34.0717 28.5421 34.0637 28.5401 34.0557 28.5401C34.0477 28.5401 33.8843 28.6317 33.6929 28.7411C33.4995 28.8526 33.0071 29.1371 32.5965 29.374ZM22.8086 29.6506C22.7149 29.7123 22.5673 29.7919 22.4796 29.8297C22.3919 29.8655 22.2484 29.9133 22.1607 29.9352C22.073 29.9571 21.8995 29.9809 21.7779 29.9889L21.5547 30.0028C21.457 30.4188 21.3274 30.9601 21.2018 31.4755C21.0782 31.9889 20.845 32.9422 20.6855 33.5949C20.526 34.2457 20.3885 34.8089 20.3825 34.8487C20.3725 34.9104 20.3785 34.9223 20.4383 34.9561C20.4762 34.978 20.5639 35.0516 20.6357 35.1213C20.7054 35.189 20.7712 35.2447 20.7792 35.2447C20.7872 35.2447 21.0304 35.1113 21.3174 34.9462C21.6045 34.779 21.9494 34.582 22.0809 34.5044C22.2125 34.4268 22.665 34.1641 23.0876 33.9233C23.5083 33.6805 24.1322 33.3223 24.4731 33.1272C24.812 32.9302 25.428 32.576 25.8426 32.3372L26.5961 31.9033C26.5722 31.7879 26.5662 31.6645 26.5662 31.5551C26.5662 31.4456 26.5702 31.3203 26.5762 31.2785L26.5862 31.2028C25.6273 30.6456 25.0991 30.3411 24.7921 30.166C24.4851 29.9909 24.0106 29.7183 23.7395 29.561C23.4684 29.4038 23.2431 29.2765 23.2411 29.2784C23.2391 29.2784 23.1773 29.3381 23.1076 29.4098C23.0358 29.4794 22.9003 29.5889 22.8086 29.6506ZM25.5595 33.4297C25.3562 33.5452 24.8937 33.8118 24.5329 34.0228C24.1701 34.2317 23.6498 34.5322 23.3767 34.6895C23.1016 34.8447 22.6451 35.1094 22.36 35.2765C22.075 35.4417 21.6763 35.6706 21.4749 35.786L21.1081 35.993C21.1281 36.2079 21.1241 36.3432 21.1121 36.4308C21.1002 36.5183 21.0683 36.6556 21.0403 36.7392C21.0144 36.8208 20.9566 36.9462 20.9148 37.0178C20.8729 37.0875 20.7991 37.193 20.7513 37.2467C20.7034 37.3024 20.6177 37.388 20.5619 37.4357C20.5061 37.4855 20.4104 37.5532 20.3526 37.589C20.2948 37.6248 20.1692 37.6805 20.0775 37.7144C19.9838 37.7462 19.8542 37.78 19.7884 37.788L19.6688 37.8039C19.4755 38.5741 19.3459 39.1034 19.2582 39.4756C19.1685 39.8477 18.9711 40.6656 18.8176 41.2965C18.6661 41.9254 18.5405 42.4487 18.5405 42.4607C18.5425 42.4706 18.5744 42.5025 18.6143 42.5303C18.6542 42.5562 18.7498 42.6478 18.8296 42.7293C18.9173 42.8229 19.001 42.9383 19.0529 43.0378C19.0987 43.1254 19.1545 43.2607 19.1784 43.3403C19.2123 43.4577 19.2283 43.4856 19.2642 43.4935C19.2881 43.4975 20.4044 43.5831 21.742 43.6826C23.0797 43.7821 25.1828 43.9393 26.4167 44.0308C27.6487 44.1244 28.7371 44.202 28.8348 44.206L29.0102 44.212C29.1159 43.9174 29.1817 43.7741 29.2235 43.7045C29.2674 43.6328 29.3591 43.5035 29.4289 43.4159C29.4986 43.3303 29.6302 43.201 29.7199 43.1274C29.8116 43.0557 29.9631 42.9542 30.0588 42.9025C30.1545 42.8507 30.3 42.7871 30.3837 42.7592C30.4655 42.7313 30.5771 42.6995 30.6329 42.6875C30.6867 42.6736 30.8562 42.6577 31.0097 42.6517L31.2888 42.6398C31.4821 41.6666 31.6974 40.5741 31.8948 39.585C32.0921 38.594 32.2975 37.5372 32.3553 37.2367C32.4111 36.9343 32.455 36.6875 32.453 36.6855C32.449 36.6855 32.3792 36.6537 32.2975 36.6158C32.2137 36.578 32.0802 36.5044 31.9985 36.4527C31.9127 36.3969 31.7632 36.2696 31.6496 36.1541C31.518 36.0188 31.4164 35.8934 31.3506 35.782C31.2948 35.6905 31.221 35.5392 31.1871 35.4457C31.1512 35.3521 31.1094 35.2049 31.0894 35.1173C31.0675 35.0118 31.0555 34.8666 31.0555 34.6895C31.0555 34.5163 31.0675 34.3671 31.0894 34.2715C31.1074 34.188 31.1393 34.0626 31.1632 33.9929C31.1851 33.9213 31.1971 33.8576 31.1871 33.8496C31.1771 33.8417 30.9459 33.7083 30.6728 33.5531C30.3977 33.3979 29.9492 33.1412 29.6761 32.984L29.1777 32.6954C29.0999 32.773 29.0242 32.8287 28.9584 32.8705C28.8926 32.9143 28.779 32.972 28.7092 32.9999C28.6375 33.0297 28.5099 33.0675 28.4242 33.0855C28.3384 33.1014 28.2029 33.1173 28.1212 33.1173C28.0374 33.1173 27.9019 33.1034 27.8162 33.0855C27.7304 33.0675 27.5989 33.0277 27.5231 32.9959C27.4454 32.9641 27.3198 32.8944 27.244 32.8407C27.1663 32.7869 27.0766 32.7153 27.0447 32.6815C27.0108 32.6456 26.9789 32.6178 26.9749 32.6178C26.9689 32.6178 26.7317 32.7551 26.4466 32.9203C26.1616 33.0855 25.7609 33.3143 25.5595 33.4297ZM44.663 33.3959C44.5513 33.587 44.2762 34.0666 44.047 34.4606C43.8197 34.8546 43.445 35.5034 43.2157 35.9034C42.9845 36.3014 42.7233 36.7551 42.6336 36.9084C42.5419 37.0616 42.3765 37.3482 42.2628 37.5452C42.1512 37.7422 42.0555 37.9134 42.0515 37.9273C42.0475 37.9412 42.0834 37.995 42.1293 38.0467C42.1771 38.0984 42.2469 38.196 42.2887 38.2616C42.3286 38.3273 42.3884 38.4527 42.4203 38.5402C42.4522 38.6278 42.4901 38.7711 42.504 38.8587C42.52 38.9562 42.524 39.0776 42.516 39.1771C42.508 39.2646 42.4981 39.3582 42.4921 39.386C42.4821 39.4318 42.508 39.4497 42.9366 39.6925C43.1858 39.8338 43.74 40.1522 44.1686 40.401C44.5952 40.6477 45.277 41.0418 45.6836 41.2766C46.0883 41.5094 46.7342 41.8816 47.1189 42.1025C47.5017 42.3214 48.0499 42.6378 48.3349 42.803C48.62 42.9682 49.1443 43.2706 49.5011 43.4756C49.856 43.6826 50.4939 44.0488 50.9165 44.2896C51.3371 44.5323 51.8175 44.809 51.983 44.9045C52.1465 45.002 52.286 45.0816 52.292 45.0836C52.298 45.0856 52.3498 45.0418 52.4056 44.9881L52.5073 44.8886C52.3817 44.6717 52.1066 44.1921 51.8135 43.6846C51.5185 43.1751 51.1497 42.5343 50.9902 42.2617C50.8328 41.987 50.4301 41.2925 50.0992 40.7194C49.7663 40.1442 49.2818 39.3064 49.0227 38.8587C48.7615 38.4089 48.4386 37.8497 48.303 37.6149C48.1695 37.378 47.9542 37.0079 47.8246 36.789C47.697 36.5701 47.4638 36.1661 47.3063 35.8934C47.1508 35.6188 46.8498 35.0994 46.6405 34.7392C46.4312 34.377 46.1341 33.8656 45.9806 33.6009L45.7036 33.1193C45.3208 33.1034 45.1972 33.0855 45.1055 33.0576C45.0278 33.0337 44.952 33.0098 44.9341 33.0039C44.9181 32.9999 44.8942 33.0058 44.8822 33.0198C44.8723 33.0357 44.7726 33.2029 44.663 33.3959ZM34.4285 36.3631C34.3468 36.4248 34.2212 36.5064 34.1514 36.5462C34.0796 36.584 33.962 36.6377 33.8923 36.6656C33.8205 36.6915 33.6989 36.7273 33.6231 36.7432C33.5454 36.7611 33.4338 36.781 33.3739 36.787L33.2643 36.7989C33.0231 38.0248 32.8816 38.7512 32.7938 39.2069C32.7061 39.6607 32.5048 40.6776 32.3473 41.4656C32.0941 42.7313 32.0642 42.9005 32.0921 42.9184C32.1081 42.9284 32.1779 42.9741 32.2436 43.0179C32.3114 43.0617 32.429 43.1552 32.5028 43.2269C32.5785 43.2965 32.6782 43.404 32.7261 43.4657C32.7719 43.5254 32.8477 43.6408 32.8915 43.7244C32.9374 43.806 33.0012 43.9473 33.0331 44.0368C33.067 44.1284 33.1048 44.2717 33.1208 44.3552C33.1427 44.4906 33.1527 44.5125 33.1945 44.5244C33.2224 44.5304 33.8125 44.5781 34.5102 44.6279C35.2059 44.6796 35.804 44.7194 35.8399 44.7194C35.8897 44.7194 35.9096 44.7075 35.9256 44.6697C35.9356 44.6418 35.9774 44.5682 36.0173 44.5045C36.0572 44.4428 36.1449 44.3333 36.2126 44.2637C36.2784 44.194 36.3881 44.1005 36.4539 44.0567C36.5196 44.011 36.6273 43.9493 36.6931 43.9194C36.7589 43.8896 36.8844 43.8458 36.9722 43.8239C37.0838 43.794 37.1914 43.7821 37.341 43.7821C37.4546 43.7841 37.5822 43.792 37.624 43.804C37.6918 43.8219 37.7018 43.8179 37.7277 43.7781C37.7416 43.7542 37.8832 43.5095 38.0387 43.2368C38.1942 42.9622 38.4593 42.5065 38.6267 42.2219C38.7922 41.9373 39.0075 41.5652 39.1052 41.396C39.2009 41.2248 39.3962 40.8845 39.5397 40.6398C39.6813 40.393 39.8009 40.1801 39.8049 40.1661C39.8089 40.1522 39.771 40.0905 39.7192 40.0268C39.6673 39.9651 39.5916 39.8418 39.5497 39.7542C39.5079 39.6666 39.46 39.5412 39.4421 39.4756C39.4241 39.4099 39.4062 39.2666 39.4002 39.1572C39.3922 39.0179 39.3982 38.9064 39.4201 38.789C39.4381 38.6955 39.45 38.6179 39.448 38.6159C39.4461 38.6159 39.3843 38.5781 39.3145 38.5363C39.2427 38.4925 38.8979 38.2935 38.547 38.0925C38.1961 37.8915 37.6659 37.587 37.3709 37.4159C37.0738 37.2427 36.6392 36.992 36.404 36.8586C36.1668 36.7233 35.7282 36.4706 35.4272 36.2954C35.1242 36.1203 34.869 35.973 34.8591 35.9691C34.8471 35.9651 34.7793 36.0268 34.7076 36.1064C34.6358 36.186 34.5102 36.3014 34.4285 36.3631ZM17.8608 37.8656C17.474 38.0885 17.0056 38.3572 16.8222 38.4646C16.575 38.6079 16.4912 38.6676 16.4992 38.6895C16.5052 38.7054 16.5212 38.799 16.5331 38.8985C16.5511 39.0338 16.5511 39.1213 16.5311 39.2606C16.5192 39.3621 16.4813 39.5194 16.4494 39.6089C16.4155 39.7005 16.3397 39.8497 16.2779 39.9432C16.1942 40.0686 16.1703 40.1204 16.1843 40.1423C16.1942 40.1582 16.3637 40.4487 16.559 40.789C16.7544 41.1273 17.0235 41.593 17.1571 41.8239L17.3983 42.2418C17.5498 42.2298 17.6275 42.2259 17.6674 42.2239C17.7073 42.2219 17.7451 42.2159 17.7511 42.2119C17.7571 42.206 17.8887 41.6865 18.0442 41.0577C18.1977 40.4268 18.413 39.5412 18.5226 39.0875C18.6302 38.6318 18.7518 38.1243 18.7937 37.9571C18.8356 37.792 18.8655 37.6527 18.8615 37.6487C18.8555 37.6447 18.7857 37.6009 18.708 37.5512L18.5645 37.4616L17.8608 37.8656ZM41.7366 40.4308C41.6708 40.4666 41.5492 40.5204 41.4674 40.5482C41.3857 40.5761 41.2362 40.6099 41.1385 40.6238C40.997 40.6418 40.9192 40.6398 40.7697 40.6199C40.6661 40.6059 40.5644 40.592 40.5445 40.592C40.5166 40.59 40.4149 40.7492 40.1278 41.2448C39.9185 41.6069 39.5378 42.2597 39.2846 42.6975C39.0294 43.1353 38.7304 43.6507 38.6208 43.8418L38.4214 44.1901C38.553 44.3453 38.6228 44.4388 38.6606 44.4985C38.7005 44.5602 38.7523 44.6577 38.7763 44.7174C38.8002 44.7791 38.8281 44.8567 38.838 44.8926C38.85 44.9383 38.868 44.9562 38.8959 44.9562C38.9178 44.9562 39.7052 45.0159 40.6441 45.0856C41.585 45.1572 42.8968 45.2547 43.5606 45.3045C44.2244 45.3542 45.0218 45.412 45.3348 45.4339C45.6477 45.4557 46.3953 45.5115 46.9993 45.5552C47.6013 45.599 48.7595 45.6826 49.5709 45.7443C50.3822 45.804 51.2295 45.8677 51.4547 45.8836C51.68 45.8995 51.8654 45.9115 51.8654 45.9075C51.8674 45.9055 51.8733 45.8756 51.8813 45.8418C51.8933 45.7841 51.8893 45.7801 51.6282 45.6329C51.4846 45.5493 51.1278 45.3443 50.8367 45.1771C50.5457 45.01 50.0214 44.7075 49.6706 44.5025C49.3197 44.2995 48.6878 43.9353 48.2652 43.6925C47.8426 43.4517 47.2963 43.1353 47.0491 42.994C46.802 42.8507 46.3136 42.5681 45.9627 42.3672C45.6119 42.1642 45.1494 41.8975 44.9361 41.7741C44.7228 41.6507 44.2284 41.3661 43.8397 41.1413C43.4509 40.9184 42.9127 40.6079 42.6436 40.4547C42.3745 40.2995 42.1412 40.1701 42.1253 40.1681C42.1093 40.1641 42.0416 40.2079 41.9758 40.2617C41.91 40.3174 41.8023 40.393 41.7366 40.4308Z" fill="#6172F3"/>
<path d="M1.70766 33.0178C1.70367 31.971 1.70766 31.764 1.73158 31.7561C1.74554 31.7521 1.79936 31.776 1.8492 31.8118C1.89903 31.8456 1.99073 31.9093 2.05054 31.9511C2.11034 31.9929 2.22198 32.0745 2.29972 32.1302C2.37747 32.1859 2.4592 32.2436 2.52897 32.2795L2.52498 33.5471C2.521 34.369 2.51103 34.8148 2.49907 34.8188C2.4891 34.8228 2.31766 34.7093 2.12031 34.568C1.92296 34.4268 1.7555 34.3153 1.74753 34.3193C1.73756 34.3253 1.7276 34.3153 1.72162 34.2994C1.71564 34.2835 1.70965 33.7063 1.70766 33.0178Z" fill="#6172F3"/>
<path d="M7.5831 36.2125L7.59837 36.186L7.6801 36.0427L7.73193 36.0745C7.75984 36.0924 7.89739 36.1919 8.04092 36.2954C8.18445 36.3989 8.30206 36.4924 8.30405 36.5004C8.30804 36.5104 8.32199 36.5123 8.33396 36.5044C8.34791 36.4964 8.33196 36.5382 8.29608 36.5979C8.26219 36.6576 8.15056 36.8467 8.05088 37.0158C7.95121 37.185 7.8615 37.3223 7.84954 37.3183C7.83957 37.3163 7.83559 37.3223 7.84157 37.3342C7.84755 37.3462 7.72993 37.5691 7.58242 37.8318C7.4349 38.0945 7.30931 38.3094 7.30333 38.3094C7.29735 38.3094 7.15781 38.2119 6.99434 38.0905C6.82889 37.9691 6.68137 37.8716 6.66542 37.8716C6.64947 37.8716 6.63552 37.8696 6.63552 37.8656C6.63552 37.8636 6.83287 37.5173 7.07608 37.0954C7.29723 36.7086 7.51335 36.3335 7.5831 36.2125Z" fill="#6172F3"/>
<path d="M11.37 40.6716C11.5893 40.5462 12.0159 40.2995 12.3169 40.1223C12.6179 39.9472 12.8751 39.8059 12.885 39.8099C12.897 39.8139 13.0565 39.9233 13.2399 40.0527C13.4233 40.182 13.5708 40.3014 13.5688 40.3134C13.5648 40.3273 13.3615 40.4547 13.1143 40.598C12.8671 40.7393 12.6638 40.8467 12.6618 40.8368C12.6578 40.8248 12.6399 40.8228 12.6219 40.8288C12.592 40.8408 12.59 40.8447 12.6159 40.8567C12.6379 40.8666 12.5083 40.9502 12.1973 41.1293C11.9501 41.2726 11.7209 41.4039 11.685 41.4219C11.6232 41.4517 11.6172 41.4517 11.5833 41.4199C11.5654 41.4 11.4816 41.3363 11.3999 41.2786C11.3182 41.2209 11.1766 41.1194 11.0869 41.0537C10.9693 40.9701 10.9295 40.9303 10.9474 40.9184C10.9613 40.9084 11.1507 40.797 11.37 40.6716Z" fill="#6172F3"/>
<path d="M16.3557 42.9522C16.3936 42.8945 16.4833 42.7811 16.555 42.7015L16.6866 42.5562L16.9398 42.7353C17.0773 42.8348 17.3584 43.0358 17.5637 43.1851C17.7691 43.3323 18.1179 43.5831 18.3392 43.7423C18.5605 43.9015 18.8316 44.1005 18.9392 44.1861C19.0469 44.2696 19.1346 44.3453 19.1346 44.3552C19.1346 44.3632 19.1067 44.4229 19.0728 44.4886C19.0389 44.5542 18.9811 44.6498 18.8754 44.797L19.0489 45.1015C19.1426 45.2667 19.4276 45.7622 19.6828 46.2C19.9379 46.6378 20.231 47.1433 20.3327 47.3244C20.4343 47.5055 20.518 47.6627 20.518 47.6767C20.52 47.6886 20.524 47.6946 20.53 47.6906C20.536 47.6866 20.5818 47.7563 20.6337 47.8458C20.6855 47.9374 20.7214 48.0209 20.7154 48.0309C20.7088 48.0442 20.7008 48.0442 20.6915 48.0309C20.6855 48.0189 20.532 47.9035 20.3506 47.7722C20.1692 47.6428 20.0077 47.5214 19.9898 47.5055C19.9738 47.4876 19.8044 47.3622 19.615 47.2249C19.4236 47.0876 19.2542 46.9781 19.2362 46.9821C19.2183 46.9841 19.1904 46.9622 19.1725 46.9324C19.1565 46.9005 18.9671 46.5761 18.7558 46.21C18.5425 45.8438 18.3691 45.5294 18.3691 45.5095C18.3671 45.4916 18.3611 45.4816 18.3531 45.4856C18.3452 45.4896 18.3153 45.4518 18.2893 45.4C18.2614 45.3463 18.2315 45.2925 18.2236 45.2806C18.2116 45.2607 18.1638 45.2667 17.8289 45.3483L17.779 45.5652C17.7491 45.6846 17.7212 45.8 17.7132 45.8219C17.6993 45.8597 17.6973 45.8597 17.6654 45.8299C17.6455 45.81 17.4979 45.7005 17.3365 45.5851C17.175 45.4697 17.0335 45.3781 17.0215 45.3841C17.0115 45.3901 17.0016 45.3781 17.0016 45.3602C17.0016 45.3403 17.0095 45.2985 17.0195 45.2647C17.0374 45.207 17.0335 45.203 16.9139 45.1413C16.8481 45.1055 16.7344 45.0299 16.6647 44.9721C16.5949 44.9144 16.4932 44.809 16.4414 44.7373C16.3876 44.6657 16.3118 44.5463 16.2759 44.4687C16.2381 44.393 16.1922 44.2756 16.1743 44.2099C16.1563 44.1443 16.1364 43.9871 16.1304 43.8617C16.1224 43.6885 16.1284 43.593 16.1543 43.4637C16.1723 43.3701 16.2102 43.2408 16.2381 43.1751C16.266 43.1094 16.3198 43.0079 16.3557 42.9522Z" fill="#6172F3"/>
<path d="M23.9109 48.7413C23.905 48.7334 24.0644 48.6319 24.2618 48.5165L24.6226 48.3055L24.7422 48.3871C24.808 48.4309 24.9615 48.5403 25.0831 48.6299C25.2047 48.7175 25.3064 48.803 25.3103 48.819C25.3123 48.8369 25.1289 48.9523 24.7821 49.1493C24.487 49.3145 24.0485 49.5632 23.8053 49.7006C23.5601 49.8379 23.3448 49.9493 23.3268 49.9493C23.2969 49.9493 23.2969 49.9453 23.3308 49.9314C23.3528 49.9215 23.3587 49.9135 23.3468 49.9135C23.3328 49.9115 23.1434 49.7822 22.9282 49.6269C22.7109 49.4697 22.4039 49.2488 22.2444 49.1354C22.0849 49.0239 21.9514 48.9284 21.9454 48.9244C21.9394 48.9205 21.9414 48.9085 21.9514 48.9006C21.9593 48.8926 22.0092 48.8986 22.061 48.9125C22.1128 48.9284 22.2364 48.9782 22.3341 49.0259C22.4378 49.0757 22.5733 49.1613 22.7926 49.3463L23.3308 49.0418C23.6279 48.8747 23.881 48.7413 23.895 48.7473C23.9069 48.7533 23.9149 48.7493 23.9109 48.7413Z" fill="#6172F3"/>
<path d="M29.2534 52.9464C29.371 52.3553 29.4767 51.8658 29.4887 51.8578C29.5006 51.8498 29.5126 51.8419 29.5146 51.8419C29.5186 51.8419 29.6661 51.9454 29.8435 52.0727C30.0229 52.2021 30.1764 52.3115 30.1844 52.3175C30.1924 52.3235 30.1046 52.813 29.989 53.4041C29.8734 53.9951 29.7717 54.4986 29.7638 54.5245C29.7498 54.5683 29.7339 54.5583 29.4149 54.3315C29.2315 54.1981 29.072 54.0946 29.0621 54.1006C29.0501 54.1066 29.0421 54.0907 29.0421 54.0648C29.0421 54.0409 29.1378 53.5374 29.2534 52.9464Z" fill="#6172F3"/>
<path d="M31.231 55.0061C31.3705 54.7593 31.6017 54.3593 31.7413 54.1145C31.8828 53.8718 32.0064 53.6727 32.0164 53.6727C32.0244 53.6727 32.1101 53.7265 32.2058 53.7921C32.3034 53.8558 32.443 53.9573 32.5207 54.017C32.5965 54.0747 32.6583 54.1325 32.6563 54.1424C32.6543 54.1524 32.5307 54.3713 32.3812 54.628L32.362 54.661C32.2128 54.9171 31.9992 55.2839 31.8788 55.4937C31.7532 55.7126 31.6396 55.9036 31.6277 55.9175C31.6077 55.9394 31.6017 55.9394 31.5918 55.9175C31.5838 55.9036 31.4502 55.7981 31.2928 55.6847C31.1353 55.5713 30.9977 55.4718 30.9897 55.4658C30.9818 55.4598 31.0894 55.2529 31.231 55.0061Z" fill="#6172F3"/>
<path d="M34.7235 57.0499C35.1681 56.7952 35.5927 56.5484 35.6704 56.5026C35.7601 56.4509 35.8239 56.425 35.8498 56.431C35.8718 56.437 35.9216 56.4688 35.9595 56.4986C35.9973 56.5305 36.1369 56.634 36.2704 56.7315C36.402 56.827 36.5097 56.9166 36.5097 56.9305C36.5077 56.9444 36.2924 57.0778 36.0292 57.231C35.7975 57.3642 35.4327 57.5746 35.1652 57.7289L35.0624 57.7882C34.7933 57.9434 34.562 58.0708 34.5481 58.0708C34.5361 58.0708 34.5262 58.0628 34.5282 58.0529C34.5321 58.041 34.3906 57.9295 34.2152 57.8021C34.0398 57.6768 33.8863 57.5693 33.8763 57.5633C33.8643 57.5594 33.8703 57.5454 33.8863 57.5355C33.9022 57.5235 34.279 57.3046 34.7235 57.0499Z" fill="#6172F3"/>
<path d="M26.1994 62.4689C26.1636 62.4092 26.1376 62.3535 26.1436 62.3435C26.1496 62.3355 26.1655 62.3355 26.1795 62.3435C26.1935 62.3535 26.3788 62.4848 26.5921 62.64C26.8055 62.7933 27.1384 63.036 27.3337 63.1773C27.5291 63.3186 27.6806 63.442 27.6726 63.45C27.6646 63.4599 27.567 63.444 27.4573 63.4142C27.3457 63.3863 27.1703 63.3206 27.0586 63.2649C26.949 63.2112 26.7875 63.1097 26.6998 63.04C26.6121 62.9724 26.4845 62.849 26.4147 62.7674C26.347 62.6858 26.2951 62.6062 26.3011 62.5942C26.3071 62.5803 26.3011 62.5704 26.2891 62.5744C26.2752 62.5763 26.2353 62.5286 26.1994 62.4689Z" fill="#6172F3"/>
</g>
</g>
</svg>
