<svg xmlns="http://www.w3.org/2000/svg" width="41" height="40" viewBox="0 0 41 40" fill="none">
    <path fill-rule="evenodd" clip-rule="evenodd" d="M16.9071 2.00156C27.4581 1.99444 28.7601 2.00867 29.1443 2.10831C29.3791 2.17236 29.6921 2.28622 29.8415 2.35739C29.9838 2.42856 30.2542 2.62782 30.432 2.79862C30.6099 2.96231 30.8447 3.23986 30.9585 3.41777C31.0723 3.59569 31.2075 3.91594 31.2715 4.12944C31.364 4.45681 31.3854 4.93362 31.3854 6.92629C31.3854 8.24287 31.4067 9.3246 31.4352 9.3246C31.4708 9.3246 32.0541 8.76239 32.7372 8.0863C33.6905 7.13267 34.0747 6.8053 34.3735 6.66297C34.6794 6.52064 34.8787 6.47794 35.2628 6.47794C35.6399 6.47794 35.8462 6.52064 36.1166 6.64874C36.3585 6.7626 36.7427 7.08997 37.3047 7.6593C37.9379 8.30692 38.1798 8.60582 38.3221 8.91184C38.4407 9.18701 38.5 9.44796 38.5 9.69467C38.4929 9.9651 38.436 10.1928 38.2866 10.4989C38.1016 10.876 37.198 11.8012 23.2391 25.757L20.9625 26.3334C19.6534 26.6679 18.6146 26.8956 18.5221 26.8743C18.4368 26.8529 18.2874 26.7533 18.1877 26.6537C18.0668 26.5327 18.0099 26.3975 18.0099 26.2409C18.0099 26.1199 18.2731 25.0382 19.1696 21.672L29.9625 10.8547V7.72335C29.9625 4.86246 29.9482 4.57067 29.8344 4.30736C29.7632 4.15079 29.5783 3.91594 29.4217 3.79496C29.2723 3.66686 29.0091 3.53164 28.8455 3.48894C28.6391 3.43912 24.6265 3.41777 16.9285 3.41777C6.9253 3.41777 5.26047 3.43201 4.95455 3.51741C4.74111 3.58146 4.50632 3.71667 4.37115 3.85901C4.24308 3.98711 4.09368 4.21484 4.03676 4.35717C3.93715 4.59914 3.92292 6.03671 3.92292 30.3543L4.08656 30.6746C4.17905 30.8525 4.38538 31.0874 4.86206 31.4218L16.8431 31.493L19.8241 33.6209C21.4676 34.7951 22.8549 35.7843 22.9047 35.827C22.9759 35.8911 22.9972 35.6207 22.9901 32.8808H22.67C22.4138 32.8808 22.3 32.8381 22.1221 32.6744C21.93 32.5036 21.8874 32.4111 21.8874 32.1762C21.8874 31.9556 21.9372 31.8417 22.2787 31.493L29.0091 31.4218L29.2937 31.2368C29.4431 31.1372 29.6494 30.9308 29.9269 30.4967L29.998 21.7645L30.2328 21.5581C30.3751 21.43 30.5387 21.3518 30.6739 21.3518C30.8233 21.3518 30.9656 21.43 31.3854 21.8499L31.3498 30.639L31.1862 31.0304C31.1008 31.2439 30.9087 31.5784 30.7593 31.7634C30.617 31.9485 30.3395 32.2118 30.1403 32.347C29.9482 32.4822 29.6423 32.6459 29.4644 32.7171C29.187 32.8238 28.8241 32.8452 24.413 32.8808V35.0869C24.413 36.7949 24.3917 37.3429 24.3134 37.5208C24.2565 37.656 24.1071 37.8126 23.9577 37.898C23.7514 38.0119 23.666 38.0261 23.5379 37.962C23.4526 37.9193 21.802 36.7593 16.3735 32.8808H10.7387C7.05336 32.8808 4.983 32.8523 4.77668 32.8025C4.59881 32.7598 4.28577 32.6388 4.07233 32.5392C3.86601 32.4324 3.53874 32.1833 3.35375 31.9912C3.16877 31.7919 2.94111 31.4717 2.8415 31.2795C2.7419 31.0802 2.62095 30.7529 2.57826 30.5465C2.52134 30.2832 2.5 26.611 2.5 17.4874C2.5 9.13245 2.52134 4.67031 2.57115 4.41411C2.61383 4.20061 2.72767 3.84477 2.83439 3.63127C2.94111 3.41777 3.16877 3.09041 3.34664 2.91249C3.53162 2.73457 3.81621 2.51396 3.99407 2.42144C4.17194 2.32892 4.49209 2.20082 4.70553 2.12966C5.06838 2.01579 5.87945 2.00867 16.9071 2.00156ZM34.6296 8.16459C34.6083 8.20017 35.0636 8.69834 35.6399 9.27479L36.6858 10.3352C37.013 9.9651 37.0771 9.81565 37.0771 9.65909C37.0771 9.46694 36.9632 9.31749 36.2731 8.63429C35.6826 8.0436 35.4265 7.8301 35.2984 7.8301C35.1988 7.8301 35.0138 7.89415 34.8929 7.97244C34.7648 8.05072 34.6439 8.13612 34.6296 8.16459ZM20.7846 22.0278L22.8834 24.1273L35.6897 11.3173C34.0889 9.71602 33.6123 9.25344 33.5909 9.25344C33.5696 9.25344 30.681 12.1286 27.1664 15.6371L20.7846 22.0278ZM19.9379 24.3763C19.817 24.8105 19.7245 25.1663 19.7387 25.1805C19.7458 25.1876 20.1229 25.0951 20.5783 24.9741C21.0265 24.8532 21.4178 24.7322 21.4462 24.7108C21.4747 24.6824 21.2115 24.3763 20.8628 24.0205C20.4146 23.5793 20.2154 23.4156 20.187 23.4868C20.1727 23.5508 20.0589 23.9493 19.9379 24.3763ZM15.1711 7.75894L15.349 7.97244C15.4628 8.11477 15.5269 8.27845 15.5269 8.43502C15.5269 8.62005 15.4628 8.74815 15.1071 9.1111H12.0051C9.17352 9.1111 8.88893 9.10399 8.7253 8.99012C8.62569 8.91895 8.51186 8.76239 8.47628 8.63429C8.42648 8.45637 8.4336 8.3425 8.52609 8.16459C8.583 8.02937 8.68972 7.88704 8.75375 7.84434C8.83202 7.79452 9.90632 7.76605 15.1711 7.75894ZM17.5972 7.75894H20.066C22.0225 7.75894 22.5632 7.78029 22.6771 7.85857C22.7553 7.90839 22.8621 8.05072 22.9119 8.15747C22.9617 8.27134 22.9901 8.45637 22.9688 8.56312C22.9403 8.66987 22.8336 8.84067 22.5348 9.11822L17.6613 9.1111L17.4478 8.8976C17.2984 8.75527 17.2273 8.61294 17.2202 8.44214C17.2202 8.27134 17.27 8.13612 17.4051 7.97955L17.5972 7.75894ZM25.5941 7.75894C26.4123 7.75894 26.5403 7.77317 26.7111 7.90127C26.8249 7.98667 26.9245 8.14324 26.953 8.27845C26.9743 8.42079 26.953 8.59159 26.8818 8.74104C26.8178 8.86914 26.704 9.00435 26.6257 9.03994C26.5474 9.08264 26.0992 9.1111 25.6296 9.1111C25.0889 9.1111 24.7047 9.08264 24.5909 9.0257C24.4913 8.97589 24.3632 8.83355 24.3063 8.70545C24.2281 8.52754 24.2209 8.41367 24.2779 8.22152C24.3134 8.0863 24.4202 7.92262 24.5055 7.86569C24.6265 7.7874 24.8897 7.75894 25.5941 7.75894ZM10.4399 13.5946C11.5854 13.5946 12.0123 13.6231 12.1617 13.6942C12.2684 13.744 12.4036 13.8864 12.4534 13.9931C12.5032 14.107 12.5316 14.2991 12.5032 14.413C12.4818 14.534 12.3822 14.7119 12.2826 14.8044C12.0976 14.9823 12.0834 14.9823 10.6249 15.0108C9.4083 15.025 9.10949 15.0108 8.88893 14.9183C8.73241 14.8542 8.57589 14.719 8.51897 14.5909C8.45494 14.4771 8.42648 14.2849 8.44783 14.1639C8.46206 14.0429 8.57589 13.8793 8.69684 13.7725C8.91739 13.5946 8.92451 13.5946 10.4399 13.5946ZM14.4597 13.5946H22.4992L22.7269 13.801C22.919 13.9718 22.9617 14.0643 22.9617 14.2991C22.9617 14.5198 22.9119 14.6336 22.5632 14.9823H14.3885L14.1893 14.7902C14.0399 14.6336 13.9972 14.5198 13.9972 14.2991C13.9972 14.0643 14.0399 13.9718 14.2249 13.801L14.4597 13.5946ZM10.5751 19.5014C11.4715 19.5014 11.5996 19.5157 11.7704 19.6438C11.8913 19.7292 11.9838 19.8857 12.0123 20.0209C12.0407 20.1633 12.0123 20.3341 11.9411 20.4835C11.8771 20.6116 11.7632 20.7468 11.685 20.7824C11.6067 20.8251 11.1087 20.8536 10.5822 20.8536C10.0557 20.8536 9.55771 20.8251 9.47945 20.7824C9.40119 20.7468 9.28735 20.6116 9.22332 20.4835C9.15217 20.3341 9.12371 20.1633 9.15217 20.0209C9.17352 19.8857 9.27312 19.7292 9.38696 19.6438C9.55059 19.5157 9.68577 19.5014 10.5751 19.5014ZM14.232 19.5014H15.719C17.0992 19.5014 17.213 19.5085 17.3909 19.6438C17.5119 19.7292 17.6043 19.8857 17.6328 20.0209C17.6613 20.1633 17.6328 20.3341 17.5617 20.4835C17.4976 20.6116 17.3838 20.7468 17.3055 20.7824C17.2273 20.8251 16.5372 20.8536 15.7047 20.8536C14.296 20.8536 14.2391 20.8536 14.0613 20.697C13.9474 20.5974 13.8621 20.4266 13.8407 20.2487C13.798 19.9996 13.8194 19.9355 14.0115 19.7363L14.232 19.5014ZM8.91028 25.3371H16.096L16.3308 25.5435C16.5016 25.7 16.5585 25.8068 16.5585 25.9918C16.5585 26.1199 16.5016 26.3192 16.4375 26.4259C16.3664 26.5327 16.2312 26.6466 16.1316 26.6893C16.0249 26.732 14.6375 26.7604 12.5032 26.7604C10.3688 26.7604 8.98142 26.732 8.8747 26.6893C8.7751 26.6466 8.63281 26.5113 8.55454 26.3832C8.45494 26.2267 8.41937 26.0843 8.44783 25.942C8.46917 25.821 8.583 25.636 8.69684 25.5292L8.91028 25.3371Z" fill="#6172F3"/>
</svg>