<svg xmlns="http://www.w3.org/2000/svg" width="40" height="40" viewBox="0 0 40 40" fill="none">
  <path fill-rule="evenodd" clip-rule="evenodd" d="M4.3625 2H32L32.5475 2.2475C32.84 2.3825 33.2525 2.645 33.4475 2.825C33.6725 3.035 33.9125 3.365 34.0775 3.6875C34.295 4.13 34.34 4.3175 34.415 5.5625L35.105 5.615C35.675 5.6525 35.8775 5.705 36.3125 5.9225C36.635 6.0875 36.965 6.3275 37.175 6.5525C37.355 6.7475 37.6175 7.16 38 8L37.9625 35.72L37.685 36.2825C37.5125 36.6425 37.2875 36.9575 37.0475 37.175C36.8525 37.355 36.44 37.6175 35.6 38H8L7.4525 37.7525C7.16 37.6175 6.7475 37.355 6.5525 37.175C6.3275 36.965 6.0875 36.635 5.9225 36.3125C5.705 35.87 5.66 35.6825 5.585 34.4375L4.895 34.385C4.325 34.3475 4.1225 34.295 3.6875 34.0775C3.365 33.9125 3.035 33.6725 2.825 33.4475C2.645 33.2525 2.3825 32.84 2 32L2.0375 4.2875L2.2625 3.8C2.39 3.53 2.645 3.1475 2.825 2.945C3.0575 2.705 3.3575 2.4875 3.7625 2.2925L4.3625 2ZM3.7625 3.755C3.53 3.9875 3.35 4.25 3.29 4.4375C3.245 4.6025 3.2 5.1875 3.2 5.765V6.8H33.2C33.2 5.1875 33.155 4.6025 33.11 4.4375C33.05 4.25 32.87 3.9875 32.6375 3.7625C32.4125 3.53 32.1425 3.35 31.9625 3.29C31.73 3.2225 28.46 3.2 18.1625 3.2075C8.5475 3.215 4.5875 3.2375 4.4 3.2975C4.2575 3.3425 3.965 3.5525 3.7625 3.755ZM34.4 10.4H36.8C36.8 8.7875 36.755 8.2025 36.71 8.0375C36.65 7.85 36.47 7.5875 36.2375 7.3625C36.0125 7.13 35.7425 6.95 35.5625 6.89C35.3975 6.845 35.0675 6.8 34.8275 6.8H34.4V10.4ZM3.2 19.8275C3.2 28.8125 3.2225 31.7375 3.29 31.9625C3.35 32.1425 3.53 32.405 3.7625 32.6375C3.9875 32.87 4.2575 33.05 4.4375 33.11C4.6625 33.1775 7.9475 33.2 18.2 33.2C28.4525 33.2 31.7375 33.1775 31.9625 33.11C32.1425 33.05 32.4125 32.87 32.6375 32.6375C32.87 32.405 33.05 32.1425 33.11 31.9625C33.17 31.745 33.2 30.4175 33.2 27.05V22.4375L27.0125 28.61C22.595 30.305 21.2375 30.8 21.14 30.8C21.05 30.8 20.8925 30.7175 20.7875 30.6125C20.6825 30.5075 20.6 30.35 20.6 30.2525C20.6 30.1625 21.095 28.805 21.695 27.2375L22.7825 24.3875L33.2 13.9625V8H3.2V19.8275ZM34.4 13.655L36.8 16.055V11.5925H34.4V13.655ZM32.285 16.5875C32.2925 16.625 32.855 17.2175 33.5375 17.8925L34.775 19.13L36.4625 17.4425C34.5425 15.53 33.95 14.9675 33.9125 14.9675C33.8675 14.9675 33.4775 15.32 33.05 15.7475C32.615 16.1675 32.27 16.55 32.285 16.5875ZM24.2 24.68L25.025 25.505L32.225 18.305C31.61 17.6975 31.4225 17.5175 31.4 17.5175C31.3775 17.5175 29.75 19.13 27.7775 21.1025L24.2 24.68ZM34.4075 21.23L34.37 32.105C34.01 32.8625 33.7625 33.245 33.575 33.44C33.3575 33.68 33.0425 33.905 32.6825 34.0775L32.1275 34.355L6.8075 34.3925C6.8075 35.06 6.845 35.39 6.8975 35.555C6.95 35.735 7.13 35.9975 7.3625 36.23C7.595 36.4625 7.8575 36.6425 8.045 36.7025C8.27 36.77 11.555 36.7925 21.8075 36.7925C32.0525 36.7925 35.3375 36.77 35.57 36.7025C35.75 36.6425 36.0125 36.4625 36.245 36.23C36.5075 35.9675 36.65 35.75 36.7175 35.5175C36.785 35.255 36.8 33.2825 36.785 27.02L36.77 18.8675L34.4075 21.23ZM25.8875 26.3675L26.7125 27.1925L33.9125 19.9925L33.0875 19.1675L25.8875 26.3675ZM23.0675 27.005L24.3875 28.325C25.3175 27.9575 25.595 27.845 25.6025 27.8375C25.61 27.8375 25.1525 27.365 24.59 26.795L23.5625 25.76L23.0675 27.005ZM22.25 29.1425C22.9175 28.895 23.1275 28.8125 23.15 28.79C23.165 28.775 23.0675 28.6475 22.925 28.505C22.775 28.355 22.64 28.2425 22.6175 28.2425C22.595 28.2425 22.4975 28.445 22.4075 28.6925L22.25 29.1425ZM5.6 4.3925H6.8V5.5925H5.6V4.3925ZM8 4.3925H9.2V5.5925H8V4.3925ZM10.4 4.3925H11.6V5.5925H10.4V4.3925ZM5.9675 10.3925H16.025L16.4 10.7675V17.2175L16.0325 17.5925H5.975L5.6 17.2175L5.6075 10.76L5.9675 10.3925ZM6.8 16.3925H15.2V11.5925H6.8V16.3925ZM18.8 10.9925H20V12.1925H18.8V10.9925ZM21.2 10.9925H30.8V12.1925H21.2V10.9925ZM18.8 13.3925H29.6V14.5925H18.8V13.3925ZM18.8 15.7925H27.2V16.9925H18.8V15.7925ZM5.6 19.9925H6.8V21.1925H5.6V19.9925ZM8 19.9925H23.6V21.1925H8V19.9925ZM5.6 22.3925H21.2V23.5925H5.6V22.3925ZM5.6 24.7925H18.8V25.9925H5.6V24.7925ZM5.6 27.1925H18.8V28.3925H5.6V27.1925ZM5.6 29.5925H18.8V30.7925H5.6V29.5925Z" fill="#6172F3"/>
</svg>