<svg xmlns="http://www.w3.org/2000/svg" width="41" height="40" viewBox="0 0 41 40" fill="none">
  <path fill-rule="evenodd" clip-rule="evenodd" d="M27.0578 2C27.1494 2 27.3114 2.05636 27.4171 2.12681C27.5157 2.19022 27.6425 2.33816 27.6918 2.45793C27.7622 2.63405 27.734 3.09198 27.5016 5.31115C27.3537 6.76243 27.2269 8.00939 27.2269 8.07984C27.2269 8.14325 27.1353 8.29824 27.0226 8.41096C26.8677 8.56595 26.7479 8.62231 26.5648 8.62231C26.4239 8.62231 26.2337 8.56595 26.1351 8.50254C26.0365 8.43209 25.9238 8.29824 25.8956 8.19961C25.8604 8.08689 25.9379 7.05127 26.1069 5.41683C26.2549 3.98669 26.3746 2.73268 26.3746 2.6411C26.3746 2.53542 26.4732 2.38748 26.6282 2.23953C26.7761 2.10568 26.9592 2 27.0578 2V2ZM16.6613 6.79061C17.1191 6.79061 17.5066 6.83288 17.894 6.93855C18.2039 7.01605 18.7603 7.2274 19.1266 7.39648C19.4929 7.5726 20.0986 7.91781 20.4649 8.16438C20.8312 8.41096 21.437 8.86184 21.8032 9.17182C22.1695 9.47476 22.7893 10.0595 23.1768 10.4681C23.5642 10.8697 24.1206 11.5037 24.4164 11.8701C24.7123 12.2364 25.142 12.8 25.3744 13.1311C25.6068 13.4622 26.0295 14.1104 26.3112 14.5753C26.5859 15.0403 27.0367 15.8646 27.2973 16.407C27.5579 16.9495 27.9101 17.7597 28.0721 18.2035C28.2341 18.6474 28.4525 19.38 28.5652 19.8239C28.6709 20.2677 28.7976 21.0004 28.8469 21.4442C28.9103 22.0501 28.9174 22.4235 28.854 22.9237C28.8117 23.29 28.7131 23.7832 28.6356 24.0157C28.5511 24.2481 28.4173 24.5652 28.3257 24.7202C28.2341 24.8751 28.0087 25.1569 27.8186 25.3401C27.6284 25.5303 27.2973 25.7628 27.086 25.8614C26.7409 26.0235 26.5014 26.0587 24.7616 26.1996C23.698 26.2912 21.3031 26.4814 19.4436 26.6294C17.584 26.7703 16.0344 26.9112 16.0062 26.9323C15.971 26.9534 16.9853 28.5104 18.2532 30.3914C19.5281 32.2724 20.6199 33.9491 20.6833 34.1252C20.7537 34.3014 20.8241 34.6325 20.8523 34.865C20.8875 35.1609 20.8664 35.4356 20.7819 35.7808C20.7185 36.0556 20.5917 36.4078 20.5001 36.5769C20.4015 36.7389 20.1902 37.0067 20.0212 37.1616C19.8592 37.3237 19.6126 37.5068 19.4788 37.5773C19.345 37.6478 19.0562 37.7675 18.8449 37.8521C18.6124 37.9436 18.2955 38 18.0348 38C17.7601 38 17.4643 37.9436 17.1896 37.838C16.9571 37.7464 16.6261 37.5773 16.45 37.4575C16.2739 37.3378 16.0203 37.1194 15.8865 36.9714C15.7527 36.8164 14.5341 35.0622 13.1817 33.0685C11.8293 31.0748 10.6882 29.398 10.646 29.3487C10.5826 29.2853 10.4628 29.3135 10.0754 29.5108C9.80072 29.6446 9.34288 29.8067 9.05409 29.8701C8.66668 29.9616 8.34267 29.9757 7.82144 29.9476C7.37064 29.9264 6.9621 29.856 6.69444 29.7573C6.462 29.6798 6.09572 29.5178 5.88441 29.4051C5.6731 29.2924 5.31387 29.0317 5.08143 28.8274C4.85603 28.6231 4.48976 28.1863 4.2714 27.8552C4.05304 27.5241 3.79947 27.038 3.7079 26.7632C3.58816 26.418 3.53181 26.0517 3.51068 25.5303C3.4825 24.9949 3.51068 24.6568 3.58816 24.2975C3.65155 24.0227 3.82765 23.5648 3.96852 23.2759C4.14227 22.9284 4.39349 22.5855 4.7222 22.2474C5.08143 21.8669 5.66606 21.4372 8.59625 19.4646L11.4349 13.7088C12.9986 10.5456 14.358 7.84736 14.4637 7.72759C14.5623 7.60078 14.7877 7.39648 14.9638 7.26967C15.1469 7.1499 15.4427 6.98787 15.64 6.91742C15.8795 6.83288 16.2035 6.79765 16.6613 6.79061ZM15.5484 8.67867C15.2807 8.93933 15.1821 9.10137 15.0765 9.46771C14.9849 9.79883 14.9497 10.144 14.9567 10.7006C14.9567 11.1656 15.0131 11.7573 15.0976 12.18C15.1751 12.5675 15.3864 13.3425 15.5766 13.9061C15.7879 14.5472 16.1401 15.3714 16.5204 16.1252C16.8515 16.7804 17.422 17.7808 17.7953 18.3444C18.1687 18.908 18.704 19.6548 18.9787 20C19.2604 20.3452 19.7605 20.9299 20.0986 21.2963C20.4367 21.6626 21.0143 22.2192 21.3806 22.5362C21.7469 22.8603 22.3174 23.2971 22.6485 23.5225C22.9795 23.7479 23.4937 24.0509 23.7896 24.1988C24.0924 24.3538 24.5855 24.544 24.8813 24.6215C25.2687 24.7272 25.5223 24.7554 25.7477 24.7272C25.9238 24.699 26.1915 24.6074 26.3464 24.5159C26.5014 24.4243 26.7338 24.227 26.8606 24.0791C26.9874 23.9311 27.1565 23.6282 27.241 23.4168C27.3466 23.135 27.3959 22.811 27.4241 22.2192C27.4452 21.6556 27.4241 21.2047 27.3396 20.7397C27.2832 20.3734 27.1565 19.8168 27.0649 19.5068C26.9663 19.1969 26.7761 18.6403 26.6282 18.274C26.4803 17.9076 26.2126 17.3018 26.0295 16.9354C25.8463 16.5691 25.5153 15.9632 25.2899 15.5969C25.0645 15.2305 24.6912 14.6387 24.4587 14.2935C24.2263 13.9483 23.8389 13.4059 23.5994 13.0959C23.3599 12.7859 22.8809 12.2153 22.5358 11.8278C22.1906 11.4474 21.5919 10.8485 21.2045 10.5033C20.8171 10.1652 20.2325 9.7002 19.9014 9.47476C19.5704 9.24931 19.0984 8.95342 18.8449 8.81252C18.5913 8.67162 18.1475 8.48141 17.8587 8.38982C17.5699 8.29119 17.1544 8.19961 16.9431 8.17847C16.6965 8.15029 16.4359 8.17143 16.2176 8.23483C15.9992 8.30528 15.7738 8.45323 15.5484 8.67867ZM11.5264 16.6536C10.6671 18.4149 9.97682 19.8873 9.9909 19.9296C10.005 19.9718 10.8714 21.254 11.9068 22.7828C12.9422 24.3115 13.8156 25.5937 13.8368 25.6219C13.8579 25.6501 15.7174 25.5303 17.9644 25.3542C20.2113 25.1781 22.092 25.0372 22.1343 25.0372C22.1836 25.0372 22.2258 25.016 22.2258 24.9879C22.2258 24.9526 21.9864 24.7624 21.6976 24.5652C21.4088 24.3609 20.8453 23.91 20.4438 23.5648C20.0493 23.2266 19.4929 22.6912 19.2041 22.3883C18.9153 22.0853 18.4222 21.5147 18.1053 21.1272C17.7883 20.7397 17.3093 20.1057 17.0346 19.7182C16.7599 19.3307 16.3514 18.6967 16.1189 18.3092C15.8865 17.9217 15.5061 17.2243 15.2737 16.7593C15.0413 16.2943 14.6961 15.5335 14.513 15.0685C14.3298 14.6035 14.0833 13.8215 13.9565 13.3354C13.8368 12.8423 13.717 12.4196 13.6959 12.3914C13.6748 12.3632 13.5269 12.5886 13.3719 12.8916C13.2169 13.2016 12.3858 14.8924 11.5264 16.6536ZM5.82806 23.0857C5.69423 23.2125 5.50405 23.438 5.3984 23.593C5.29274 23.7479 5.14482 24.0157 5.08143 24.1918C5.01099 24.3679 4.92647 24.6849 4.89829 24.8963C4.86307 25.1076 4.87012 25.4881 4.89829 25.7417C4.94055 26.0235 5.0603 26.3969 5.2223 26.728C5.3984 27.0802 5.63084 27.3973 5.91259 27.6791C6.16616 27.9327 6.5113 28.1863 6.74375 28.299C6.96915 28.4047 7.34951 28.5245 7.58899 28.5738C7.92709 28.6301 8.15249 28.6301 8.52581 28.5738C8.79347 28.5245 9.17383 28.4117 9.37106 28.3272C9.56124 28.2356 10.3642 27.7213 11.1461 27.1789L12.5689 26.1996C12.259 25.7628 11.449 24.5722 10.5685 23.2759C9.68802 21.9796 8.96252 20.9088 8.95548 20.9018C8.94139 20.9018 8.29337 21.3386 7.49743 21.881C6.70853 22.4235 5.95485 22.9659 5.82806 23.0857ZM11.8152 28.4047C11.7518 28.4399 12.4985 29.5953 14.3228 32.2935C16.2387 35.1256 16.9924 36.1824 17.1966 36.3303C17.3657 36.4501 17.6052 36.5417 17.8235 36.5628C18.0419 36.591 18.2814 36.5769 18.4575 36.5135C18.6124 36.4642 18.8449 36.3233 18.9787 36.2106C19.1125 36.0908 19.2745 35.8654 19.345 35.7104C19.4154 35.5554 19.4788 35.2947 19.4788 35.1327C19.4788 34.9636 19.4365 34.7241 19.3802 34.6043C19.3309 34.4775 18.1757 32.7374 16.8233 30.7436L14.358 27.1155C13.7593 27.0873 13.6677 27.1296 12.8225 27.7213C12.3153 28.0736 11.8645 28.3836 11.8152 28.4047ZM31.1714 15.0403C31.27 15.0333 32.4111 15.2235 33.7071 15.463C35.0032 15.6955 36.3062 15.928 36.595 15.9843C37.0458 16.0689 37.1515 16.1112 37.3276 16.3155C37.4966 16.5127 37.5248 16.5902 37.4826 16.7945C37.4614 16.9284 37.3699 17.1115 37.2783 17.2031C37.1938 17.2877 37.0458 17.3793 36.9472 17.3933C36.8486 17.4145 35.454 17.1961 33.848 16.9072C31.6926 16.5127 30.8755 16.3436 30.7488 16.245C30.6501 16.1675 30.5445 16.0196 30.5093 15.9068C30.467 15.7659 30.474 15.6321 30.5445 15.463C30.6008 15.3362 30.7206 15.1812 30.8192 15.1319C30.9178 15.0826 31.0728 15.0403 31.1714 15.0403ZM34.8834 7.28376C35.0454 7.28376 35.1793 7.34716 35.3272 7.49511C35.4892 7.65714 35.5385 7.76986 35.5385 7.98826C35.5385 8.20665 35.4962 8.31233 35.3413 8.44618C35.2356 8.54481 34.0593 9.33386 32.721 10.2074C30.629 11.5742 30.2557 11.7996 30.0232 11.7926C29.826 11.7926 29.7063 11.7362 29.5513 11.5812C29.4104 11.4403 29.34 11.2994 29.34 11.1585C29.34 11.0387 29.3682 10.8838 29.4104 10.8063C29.4457 10.7288 30.3261 10.1018 31.3616 9.4184C32.404 8.73503 33.5662 7.97417 33.9536 7.72759C34.4467 7.41761 34.7214 7.28376 34.8834 7.28376ZM20.1127 13.582C20.6058 13.6031 20.9087 13.6595 21.2749 13.7933C21.5426 13.892 21.9371 14.0963 22.1484 14.2372C22.3597 14.3851 22.6414 14.6317 22.7682 14.7867C22.902 14.9417 23.1063 15.2235 23.219 15.4207C23.3317 15.611 23.4937 15.9773 23.5712 16.2309C23.6698 16.5339 23.7191 16.8861 23.7191 17.2877C23.7262 17.6611 23.6839 18.0485 23.6064 18.3092C23.536 18.5417 23.3881 18.908 23.2754 19.1194C23.1627 19.3307 22.9091 19.6759 22.7048 19.8873C22.5006 20.0986 22.2329 20.3311 22.1202 20.4016C22.0004 20.472 21.8032 20.5284 21.6764 20.5284C21.5215 20.5284 21.3876 20.465 21.2397 20.317C21.0777 20.155 21.0284 20.0423 21.0284 19.8239C21.0284 19.5914 21.0707 19.5068 21.282 19.3096C21.4229 19.1898 21.613 19.0067 21.7117 18.908C21.8032 18.8094 21.9371 18.6333 22.0145 18.5205C22.085 18.4008 22.1977 18.1049 22.2611 17.8513C22.3456 17.5413 22.3667 17.2877 22.3315 17.0763C22.3033 16.9002 22.2118 16.5832 22.1343 16.3718C22.0427 16.1393 21.8596 15.8575 21.6623 15.6673C21.4863 15.4912 21.1834 15.2658 20.9932 15.1742C20.6974 15.0262 20.5424 14.998 19.9648 14.998C19.345 14.998 19.2604 15.0121 18.8589 15.2235C18.6195 15.3503 18.3236 15.456 18.2109 15.456C18.0771 15.456 17.9151 15.3855 17.7813 15.2587C17.6052 15.1037 17.5629 15.0121 17.5699 14.7867C17.5699 14.6317 17.6193 14.4344 17.6826 14.3429C17.739 14.2583 17.9996 14.0822 18.2602 13.9624C18.5279 13.8356 18.8942 13.6947 19.0914 13.6454C19.3027 13.589 19.7112 13.5679 20.1127 13.582Z" fill="#6172F3" stroke="#6172F3"/>
</svg>