<svg xmlns="http://www.w3.org/2000/svg" width="40" height="40" viewBox="0 0 40 40" fill="none">
  <g clip-path="url(#clip0_2_11047)">
    <path fill-rule="evenodd" clip-rule="evenodd" d="M19.9804 1C35.9019 1 37.527 1.00786 37.9195 1.12575C38.1551 1.19648 38.4769 1.31437 38.6261 1.39297C38.7753 1.47156 39.05 1.69162 39.2385 1.87239C39.4269 2.06101 39.6703 2.41468 40 3.08273V36.9566L39.788 37.3888C39.6703 37.6246 39.3876 38.0019 39.16 38.2219C38.9009 38.4656 38.5633 38.6935 37.8018 39H2.23749L1.76644 38.8114C1.4367 38.6778 1.15407 38.4813 0.816487 38.1433C0.47105 37.7897 0.298332 37.5382 0 36.7208L0.0392542 3.08273L0.219823 2.71334C0.314033 2.50114 0.557409 2.15533 0.769382 1.93526C0.973503 1.7152 1.24828 1.47942 1.3739 1.40869C1.50736 1.34581 1.80569 1.22792 2.04122 1.14933C2.44946 1.01572 3.43867 1.00786 19.9804 1V1ZM1.51521 2.37539C1.35819 2.50114 1.14622 2.79193 1.04416 3.00414C0.887144 3.34209 0.863592 3.52285 0.863592 4.36381V5.32265H39.1757C39.1757 3.52285 39.1521 3.34995 38.9951 3.00414C38.893 2.78407 38.6889 2.50114 38.5319 2.37539C38.3749 2.24964 38.1158 2.09245 37.9509 2.04529C37.7076 1.9667 33.7821 1.94312 19.9804 1.95098C6.66536 1.95098 2.25319 1.97456 2.06477 2.04529C1.92345 2.10031 1.67223 2.24964 1.51521 2.37539ZM0.902846 36.7994C1.16192 37.2867 1.35819 37.5382 1.50736 37.6639C1.66438 37.7897 1.92345 37.9468 2.08832 37.994C2.3317 38.0726 6.26497 38.0962 20.0196 38.0962C33.7743 38.0962 37.7076 38.0726 37.9509 37.994C38.1158 37.9468 38.3749 37.7897 38.5319 37.6639C38.6889 37.5382 38.893 37.2474 38.9951 37.0352L39.1757 36.6422V6.18718H0.863592L0.902846 36.7994ZM30.5083 2.80765C30.6575 2.80765 30.8773 2.86267 31.0108 2.92554C31.1364 2.98842 31.2777 3.11417 31.3248 3.20062C31.3641 3.28707 31.4033 3.49928 31.4033 3.67218C31.4033 3.91582 31.3484 4.04157 31.1757 4.22234C30.9872 4.41096 30.8773 4.45812 30.6026 4.45812C30.4063 4.45812 30.1865 4.4031 30.0687 4.32451C29.9666 4.24592 29.8332 4.07301 29.7782 3.94726C29.7076 3.78221 29.7076 3.62503 29.7547 3.41282C29.8018 3.25564 29.9274 3.05129 30.0373 2.96484C30.1551 2.87839 30.367 2.80765 30.5083 2.80765ZM33.107 2.80765C33.2483 2.80765 33.4603 2.85481 33.578 2.91768C33.6958 2.9727 33.8449 3.14561 33.9078 3.28707C33.9706 3.45212 33.9941 3.66432 33.9706 3.82937C33.9392 3.9787 33.8292 4.18304 33.7193 4.27735C33.578 4.41096 33.421 4.45812 33.1698 4.45812C32.9107 4.45812 32.7537 4.41096 32.5967 4.27735C32.4789 4.17518 32.3533 3.9787 32.3219 3.84509C32.2905 3.6879 32.3062 3.49928 32.369 3.33423C32.4239 3.20062 32.5574 3.01986 32.6595 2.94126C32.7694 2.87053 32.9657 2.80765 33.107 2.80765ZM35.6899 2.80765C35.8312 2.80765 36.051 2.85481 36.1688 2.91768C36.2866 2.9727 36.4279 3.11417 36.4828 3.23206C36.5378 3.34209 36.5849 3.52285 36.5849 3.63289C36.5849 3.74292 36.5299 3.9394 36.4671 4.06515C36.4043 4.1909 36.2787 4.34023 36.1923 4.37952C36.106 4.41882 35.9097 4.45812 35.7605 4.45812C35.6114 4.45812 35.3916 4.41096 35.2816 4.35595C35.1717 4.30879 35.0304 4.13588 34.9598 3.98656C34.8813 3.81365 34.8577 3.61717 34.8891 3.45212C34.9127 3.30279 35.0304 3.12203 35.1796 3.00414C35.3288 2.87839 35.5172 2.80765 35.6899 2.80765ZM11.737 8.86722C16.9814 8.85936 17.9156 8.87508 18.2689 8.97725C18.528 9.04798 18.8106 9.21303 19.0147 9.40166C19.2031 9.5667 19.4308 9.88108 19.7056 10.5098L19.682 16.9388C19.6663 22.8805 19.6506 23.3756 19.525 23.6192C19.4544 23.7528 19.2659 23.9965 19.1168 24.1458C18.9676 24.2951 18.7242 24.4838 18.5829 24.5624C18.3474 24.6881 17.8528 24.696 5.49558 24.7353L5.08734 24.5624C4.84396 24.4523 4.56133 24.2401 4.37291 24.0279C4.2002 23.8236 4.01963 23.5013 3.95682 23.2813C3.86261 22.9512 3.84691 21.9059 3.88616 10.3919L4.12954 9.95967C4.28656 9.67149 4.49591 9.44095 4.75761 9.26805C4.96958 9.12658 5.24436 8.97725 5.37782 8.93795C5.50343 8.90652 8.36899 8.86722 11.737 8.86722ZM5.00883 10.1169C4.93817 10.2269 4.83611 10.4077 4.78901 10.5334C4.73405 10.6749 4.7105 12.7026 4.7105 16.8209V22.8883C4.98528 23.4228 5.16585 23.6428 5.29931 23.7214C5.51914 23.855 5.84887 23.8629 11.7763 23.8707C17.8763 23.8707 18.0255 23.8629 18.2689 23.7135C18.4102 23.6271 18.5986 23.4385 18.685 23.3049C18.8342 23.0534 18.842 22.904 18.8342 16.7973C18.8342 10.722 18.8342 10.5413 18.6771 10.2898C18.5986 10.1562 18.3867 9.96753 18.2139 9.88108C17.9313 9.73961 17.7429 9.72389 16.5574 9.72389H15.2071L15.1914 16.0035C14.8224 16.3808 14.6104 16.5065 14.4848 16.5301C14.3513 16.5537 14.1629 16.5537 14.053 16.5222C13.9431 16.4908 13.3857 15.9957 12.8126 15.4298L11.7763 14.4002C9.75859 16.4201 9.58587 16.5615 9.35819 16.5615C9.21688 16.5615 8.99706 16.5065 8.87144 16.4436C8.73798 16.3808 8.58096 16.2472 8.51816 16.145C8.41609 15.9957 8.40039 15.5005 8.40039 12.8441V9.72389C6.1629 9.73175 5.59764 9.76319 5.41708 9.82606C5.26791 9.88108 5.08734 10.0147 5.00883 10.1169ZM9.26398 15.7363L11.3994 13.6143C11.3209 11.7044 11.3366 11.4529 11.423 11.3115C11.4936 11.2014 11.6192 11.1386 11.7527 11.1386C11.8705 11.1307 12.0118 11.1779 12.0589 11.2329C12.1138 11.2958 12.1766 11.7909 12.208 12.4747L12.263 13.6143C13.8018 15.1704 14.2728 15.6184 14.3042 15.6184C14.3356 15.6184 14.367 14.2902 14.367 12.6711V9.72389H9.26398V15.7363ZM21.7547 9.25233H35.9568L36.0746 9.42523C36.1766 9.57456 36.1923 9.86536 36.1766 11.0443C36.1531 12.3882 36.1374 12.4982 35.9961 12.6004C35.8626 12.6947 34.7949 12.7104 28.8283 12.7104C21.9274 12.7104 21.8253 12.7104 21.6683 12.5533C21.5191 12.4118 21.5113 12.286 21.5034 10.9971C21.4956 9.8182 21.5113 9.57456 21.6212 9.42523L21.7547 9.25233ZM22.3749 11.8459H35.3288V10.1169H22.3749V11.8459ZM26.0569 15.304C29.4171 15.304 30.367 15.3276 30.4455 15.4062C30.5005 15.4612 30.5476 15.6027 30.5476 15.7206C30.5397 15.8542 30.4769 15.9799 30.367 16.0507C30.2179 16.1528 29.6133 16.1686 26.0883 16.1686C23.5368 16.1686 21.9117 16.1371 21.7861 16.09C21.6683 16.0428 21.5741 15.9249 21.5505 15.7992C21.5191 15.6498 21.5427 15.5398 21.6369 15.4455C21.7625 15.3119 22.0844 15.304 26.0569 15.304ZM21.7547 20.0196H28.8204C35.7762 20.0196 35.8862 20.0275 36.0353 20.1768C36.1217 20.2633 36.1923 20.389 36.1923 20.4519C36.1923 20.5148 36.1217 20.6405 36.0353 20.727C35.8862 20.8842 35.7762 20.8842 28.8518 20.8842C21.9352 20.8842 21.8253 20.8842 21.6683 20.727C21.5819 20.6405 21.5113 20.5226 21.5034 20.4676C21.5034 20.4126 21.5584 20.2947 21.629 20.1926L21.7547 20.0196ZM28.7498 24.7431C32.5653 24.7431 35.7684 24.7667 35.8705 24.7981C35.9725 24.8296 36.0903 24.9475 36.1295 25.0496C36.1766 25.1911 36.1609 25.3011 35.9568 25.5998H21.7468L21.629 25.4269C21.5662 25.3326 21.5113 25.2068 21.5113 25.1518C21.5113 25.0968 21.5819 24.9789 21.6683 24.8925C21.8253 24.7431 21.9274 24.7353 28.7498 24.7431ZM5.49558 27.0145C6.71246 27.0145 6.75957 27.0223 7.18351 27.3996V29.9224L6.75172 30.3547H4.23945L4.02748 30.1425C3.81551 29.9303 3.80765 29.8831 3.77625 29.0422C3.76055 28.5549 3.77625 27.9812 3.80765 27.7611C3.84691 27.5175 3.93327 27.3053 4.05103 27.1952C4.22375 27.0302 4.29441 27.0145 5.49558 27.0145ZM4.67125 29.4902H6.31992L6.34347 27.879H4.62414L4.67125 29.4902ZM9.68008 27.0223C10.3553 27.0223 10.9755 27.0459 11.0461 27.0774C11.1168 27.1088 11.2188 27.2345 11.2816 27.3524C11.3523 27.5018 11.3837 27.9026 11.3837 28.6649C11.3837 29.2701 11.3523 29.8596 11.3052 29.9617C11.2659 30.0718 11.1089 30.2132 10.9519 30.2761C10.7556 30.3626 10.3945 30.394 9.69578 30.394C8.99706 30.394 8.63592 30.3626 8.43965 30.2761C8.29048 30.2132 8.13346 30.0875 8.08636 30.001C8.0471 29.9146 8.00785 29.333 8.00785 28.7042C8.00785 27.8476 8.03925 27.5096 8.12561 27.3367C8.19627 27.211 8.29048 27.0931 8.34544 27.0695C8.40039 27.0459 8.99706 27.0302 9.68008 27.0223ZM8.87144 29.5295H10.5201V27.879H8.87144V29.5295ZM13.9038 27.0145C15.1364 27.0145 15.16 27.0223 15.3484 27.211C15.5447 27.4074 15.5447 27.431 15.5525 28.6885C15.5525 29.9617 15.5525 29.9696 15.3484 30.1582C15.1443 30.3547 15.1207 30.3547 12.6477 30.3547L12.208 29.9224V27.3996L12.4279 27.211C12.6477 27.0223 12.6948 27.0145 13.9038 27.0145ZM13.0716 29.4902H14.7203L14.7517 27.879H13.0324L13.0716 29.4902ZM16.7929 27.0145L18.0726 27.0223C18.9519 27.0223 19.3837 27.0538 19.4701 27.1166C19.5407 27.1717 19.6428 27.2974 19.6899 27.3917C19.7448 27.5018 19.7841 27.989 19.7841 28.6649C19.7841 29.4902 19.7527 29.8281 19.6663 30.001C19.5878 30.1504 19.4465 30.2683 19.2895 30.3233C19.1482 30.3626 18.5986 30.4019 18.0726 30.4019C17.3974 30.394 17.0285 30.3626 16.84 30.2761C16.683 30.2132 16.526 30.0875 16.4868 30.001C16.4396 29.9146 16.4082 29.3016 16.4082 28.6414C16.4161 27.4782 16.4239 27.4232 16.6045 27.2267L16.7929 27.0145ZM17.2718 29.5295H18.9205V27.879H17.2718V29.5295ZM35.9568 29.5295L36.0746 29.726C36.1531 29.8674 36.1688 29.9617 36.1138 30.0796C36.0667 30.1661 35.9647 30.2683 35.8783 30.3154C35.7762 30.3626 33.2718 30.394 28.8518 30.394C24.4553 30.394 21.9117 30.3626 21.7861 30.3154C21.6605 30.2683 21.5662 30.1504 21.5427 30.0168C21.5113 29.8753 21.5348 29.7574 21.629 29.6631C21.7547 29.5373 22.21 29.5295 35.9568 29.5295ZM35.9568 34.2451L36.0746 34.418C36.1374 34.5202 36.1923 34.6459 36.1923 34.6931C36.1923 34.7481 36.1217 34.866 36.0353 34.9524C35.8783 35.1096 35.7684 35.1096 20.0589 35.1096C9.66438 35.1096 4.18449 35.0782 4.08243 35.031C3.97252 34.976 3.91757 34.866 3.90972 34.6931C3.89401 34.5516 3.94112 34.3944 4.00393 34.3394C4.08243 34.2687 7.76447 34.2451 35.9568 34.2451ZM8.21982 19.6267C9.87635 19.6267 10.104 19.6424 10.2218 19.7682C10.3003 19.8389 10.3631 19.9725 10.3631 20.0589C10.3553 20.1454 10.2924 20.279 10.2218 20.3576C10.0962 20.4834 9.90775 20.4991 8.18057 20.4912C6.29637 20.4912 6.27282 20.4912 6.15505 20.3104C6.09225 20.2161 6.03729 20.0904 6.03729 20.0354C6.04514 19.9882 6.1158 19.8703 6.20216 19.7839C6.34347 19.6345 6.46124 19.6267 8.21982 19.6267ZM9.08342 21.4343C11.3837 21.4343 11.8391 21.4501 11.9882 21.5522C12.0981 21.623 12.1688 21.7487 12.1688 21.8823C12.1688 22.0081 12.1217 22.1495 12.0746 22.1967C11.9961 22.2753 11.3052 22.2989 6.28067 22.2989L6.15505 22.1181C6.09225 22.0238 6.03729 21.898 6.03729 21.843C6.04514 21.7959 6.1158 21.678 6.20216 21.5915C6.35132 21.4422 6.46124 21.4343 9.08342 21.4343Z" fill="#6172F3" stroke="#6172F3" stroke-width="0.5"/>
  </g>
  <defs>
    <clipPath id="clip0_2_11047">
      <rect width="40" height="40" fill="white"/>
    </clipPath>
  </defs>
</svg>