<svg xmlns="http://www.w3.org/2000/svg" width="40" height="40" viewBox="0 0 40 40" fill="none">
  <path fill-rule="evenodd" clip-rule="evenodd" d="M23.9347 2L24.315 2.21875C24.6192 2.39648 24.7367 2.51953 25.0755 3.19629V5.62305C25.0755 7.81738 25.0617 8.07715 24.9442 8.32324C24.875 8.47363 24.7298 8.68555 24.6192 8.80176C24.5017 8.91797 24.2873 9.06836 24.1421 9.13672C23.9623 9.22559 23.7203 9.27344 23.4507 9.27344C23.1257 9.27344 22.9598 9.23242 22.704 9.08887C22.4965 8.96582 22.3237 8.80176 22.213 8.61035C22.1232 8.45312 22.0125 8.15234 21.971 7.94727C21.9296 7.74219 21.8881 7.50977 21.8812 7.44141C21.8673 7.3457 21.3073 7.83789 19.7516 9.32129C18.5693 10.4492 17.5183 11.3926 17.3662 11.4678C17.1818 11.5589 16.949 11.6045 16.6678 11.6045C16.2876 11.6045 16.17 11.5635 14.2548 10.5996L10.3482 14.4619C8.19792 16.5879 6.33108 18.3789 6.19971 18.4404C6.05452 18.5156 5.81252 18.5566 5.59126 18.5498C5.39767 18.5498 5.12801 18.502 5.01047 18.4541C4.88601 18.3994 4.67167 18.2695 4.5403 18.1533C4.40893 18.0439 4.22225 17.7842 4.13236 17.5791C4.00099 17.2783 3.98025 17.1416 4.01482 16.834C4.03556 16.6289 4.12545 16.3486 4.20842 16.2119C4.2983 16.0752 6.32417 14.0039 13.0794 7.27734L13.4942 7.16113C13.7708 7.08594 13.999 7.06543 14.1856 7.09277C14.3378 7.12012 14.8978 7.36621 16.3982 8.13867L17.9055 6.68945C18.7352 5.89648 19.4128 5.2334 19.4128 5.21289C19.4059 5.19238 19.2676 5.1582 19.0947 5.12402C18.9219 5.09668 18.6661 5.01465 18.5209 4.94629C18.3826 4.87793 18.1959 4.74121 18.1129 4.65234C18.0299 4.57031 17.9124 4.3584 17.8502 4.1875C17.7949 4.0166 17.7465 3.74316 17.7465 3.57227C17.7465 3.39453 17.8156 3.12109 17.9124 2.92285C18.0023 2.73145 18.1475 2.5127 18.2374 2.4375C18.3273 2.35547 18.5278 2.22559 18.6799 2.15039C18.9426 2.01367 19.0671 2.00684 23.9347 2ZM18.8735 3.29199C18.8251 3.35352 18.7836 3.4834 18.7836 3.58594C18.7836 3.70215 18.8527 3.8457 18.9564 3.94824C19.1224 4.1123 19.157 4.11914 20.042 4.11914C20.8233 4.1123 20.9823 4.13281 21.1137 4.23535C21.2036 4.30371 21.2935 4.46777 21.3142 4.59766C21.3626 4.83008 21.3419 4.85742 20.4983 5.65723C20.0212 6.1084 18.9772 7.09961 18.1751 7.8584C16.9928 8.97949 16.6748 9.24609 16.5157 9.24609C16.412 9.24609 15.8105 8.98633 15.1675 8.66504C14.5313 8.34375 13.9506 8.08398 13.8745 8.08398C13.7846 8.08398 12.2773 9.5332 9.46323 12.3291C7.11931 14.6602 5.16258 16.6357 5.11418 16.7178C5.06578 16.7998 5.03121 16.9365 5.0243 17.0186C5.0243 17.1074 5.10035 17.251 5.19715 17.3467C5.30778 17.4561 5.45298 17.5176 5.59126 17.5176C5.79869 17.5244 6.15132 17.1963 9.87808 13.4844C13.0932 10.2988 13.9782 9.45117 14.1165 9.45117C14.2133 9.45117 14.8079 9.71777 15.444 10.0459C16.329 10.4971 16.6471 10.627 16.7785 10.5996C16.8753 10.5723 17.8709 9.68359 19.0947 8.52148C20.2771 7.40723 21.4456 6.28613 21.7083 6.04004C22.1093 5.65723 22.213 5.58887 22.4205 5.58887C22.6002 5.58887 22.704 5.63672 22.8008 5.75977C22.9252 5.91016 22.939 6.04004 22.9321 6.90137C22.9321 7.81738 22.939 7.89258 23.0842 8.05664C23.2018 8.19336 23.3124 8.24121 23.4853 8.24121C23.6581 8.24121 23.7687 8.19336 23.8794 8.05664C24.0384 7.87891 24.0384 7.86523 24.0384 5.60254C24.0315 3.68848 24.0177 3.3125 23.9278 3.19629C23.831 3.06641 23.7342 3.05957 21.5285 3.0459C19.876 3.03223 19.1915 3.0459 19.0947 3.10742C19.0187 3.14844 18.9219 3.2373 18.8735 3.29199ZM28.9129 5.83496C29.4177 5.82812 29.8671 5.8623 30.0538 5.92383C30.2266 5.97168 30.4894 6.08789 30.6415 6.18359C30.7936 6.2793 31.0356 6.49121 31.1808 6.65527C31.326 6.81934 31.5058 7.12012 31.5749 7.31152C31.6924 7.61914 31.7132 7.85156 31.7132 8.80176C31.7132 9.89551 31.7063 9.92969 31.5611 10.0322C31.4712 10.0869 31.326 10.1348 31.2292 10.1416C31.1324 10.1416 30.9803 10.0801 30.8835 10.0049C30.7175 9.875 30.7106 9.84766 30.6761 8.75391C30.6415 7.63281 30.6415 7.62598 30.4341 7.36621C30.3234 7.22266 30.1022 7.04492 29.9501 6.97656C29.7426 6.8877 29.4937 6.85352 28.9682 6.85352C28.4773 6.85352 28.1731 6.8877 28.0002 6.96289C27.855 7.01758 27.6615 7.13379 27.5785 7.21582C27.4886 7.29785 27.3641 7.45508 27.3019 7.57129C27.1913 7.75586 27.1844 8.45996 27.1705 15.5146C27.1567 19.7734 27.1636 23.2598 27.1844 23.2598C27.2051 23.2598 27.3503 23.1914 27.5163 23.1162C27.6753 23.0342 28.1454 22.7402 28.5672 22.4531C28.989 22.166 29.632 21.708 30.6761 20.9355L30.7106 11.5566L30.9042 11.3926C31.0079 11.3037 31.1462 11.2285 31.2154 11.2285C31.2776 11.2217 31.4159 11.2832 31.7132 11.502V15.8086C31.7132 18.1738 31.727 20.1152 31.7478 20.1152C31.7685 20.1152 32.0243 20.0059 32.3216 19.8623C32.7572 19.6572 32.9508 19.6094 33.4072 19.582C33.8497 19.5615 34.0364 19.582 34.3406 19.6914C34.548 19.7734 34.873 19.9648 35.0597 20.1289C35.2463 20.293 35.4745 20.5391 35.5644 20.6758C35.6474 20.8193 35.7857 21.1201 35.8617 21.3457C35.9378 21.5713 36 21.8721 36 22.0088C36 22.1523 35.9585 22.4258 35.917 22.6172C35.8686 22.8086 35.7165 23.123 35.5851 23.3213C35.3985 23.5947 34.6656 24.2373 32.4392 26.0488C30.842 27.3477 29.3485 28.5439 29.1204 28.7012C28.8922 28.8584 28.5188 29.0771 28.2906 29.1934C28.0625 29.3027 27.6753 29.46 27.4264 29.542C27.1775 29.624 24.4394 30.3008 21.3419 31.0527C18.2443 31.8047 15.686 32.4199 15.6584 32.4199C15.6238 32.4199 15.6031 32.6592 15.61 32.9463C15.6169 33.2402 15.5961 33.6025 15.5685 33.7529C15.5408 33.9033 15.4233 34.2246 15.3057 34.4707C15.1675 34.7578 14.9531 35.0586 14.6765 35.3252C14.4415 35.5508 14.0819 35.8174 13.8745 35.9131C13.6671 36.0156 13.0586 36.207 12.5262 36.3369C11.9938 36.4736 11.1226 36.6787 10.5902 36.7949C10.0094 36.918 9.42866 37 9.13826 37C8.84095 37 8.49524 36.9453 8.23941 36.8564C8.01124 36.7812 7.69319 36.6445 7.53416 36.5557C7.36822 36.46 7.07782 36.2207 6.87731 36.0225C6.68371 35.8311 6.4348 35.4824 6.32417 35.2568C6.22046 35.0312 5.96463 34.1973 5.75029 33.4111C5.49446 32.4404 5.39075 31.9209 5.42532 31.8115C5.45298 31.7227 5.53595 31.6064 5.61201 31.5518C5.68806 31.5039 5.81943 31.4629 5.90932 31.4629C5.99229 31.4629 6.13749 31.5312 6.22737 31.6133C6.36566 31.7432 6.46937 32.0439 6.75285 33.1377C6.94645 33.8896 7.16771 34.6279 7.23685 34.7783C7.3129 34.9287 7.48576 35.1748 7.63096 35.3184C7.77616 35.4688 8.06655 35.667 8.27398 35.7627C8.58512 35.9062 8.74415 35.9404 9.17283 35.9336C9.53237 35.9268 10.1961 35.8037 11.3162 35.5508C12.2082 35.3457 13.0794 35.1133 13.2522 35.0312C13.4251 34.9492 13.7016 34.751 13.8676 34.5938C14.0335 34.4297 14.2479 34.1289 14.3447 33.9238C14.4553 33.6914 14.5313 33.377 14.5521 33.1035C14.5867 32.6592 14.5728 32.6387 12.9065 28.2158C11.98 25.7686 11.2194 23.7656 11.2194 23.752C11.2125 23.7451 10.1685 24.0254 8.89626 24.3877C7.62404 24.75 6.45554 25.1123 6.30343 25.2012C6.15132 25.29 5.91623 25.4951 5.77795 25.6592C5.63275 25.8232 5.47372 26.083 5.40458 26.2334C5.34235 26.3838 5.27321 26.6914 5.25938 26.917C5.22481 27.2588 5.27321 27.5322 5.53595 28.5371C5.70881 29.207 5.854 29.8018 5.854 29.8564C5.854 29.9111 5.77795 30.0342 5.68115 30.1299C5.59126 30.2256 5.44606 30.3008 5.35618 30.3008C5.2663 30.3076 5.12801 30.2529 5.03813 30.1846C4.90676 30.0889 4.80996 29.8223 4.57487 28.9336C4.40893 28.3115 4.2499 27.5869 4.22225 27.3271C4.19459 27.0195 4.20842 26.7119 4.26373 26.4727C4.31213 26.2676 4.43659 25.9121 4.5403 25.6865C4.64402 25.4609 4.88601 25.1055 5.0727 24.9004C5.32852 24.6201 5.56361 24.4492 5.9992 24.2441C6.40714 24.0459 7.29216 23.7588 8.9654 23.2939C11.2125 22.6582 11.3992 22.5967 13.0448 21.7217V16.5947L13.2246 16.2188C13.3214 16.0137 13.5011 15.7402 13.6187 15.6172C13.7431 15.4873 13.999 15.3027 14.1856 15.207C14.5244 15.0293 14.559 15.0225 15.8105 15.0225C16.9859 15.0225 17.1173 15.0361 17.4008 15.1729C17.5736 15.2549 17.8294 15.4395 17.9815 15.583C18.1267 15.7266 18.3273 16.0137 18.4241 16.2188C18.59 16.5674 18.6038 16.6836 18.6246 17.668C18.6384 18.2627 18.6661 18.748 18.7006 18.748C18.7283 18.7412 18.9288 18.6455 19.5442 18.3037L19.5649 15.4668C19.5856 12.6436 19.5856 12.6299 19.7516 12.2197C19.8553 11.96 20.042 11.6934 20.2494 11.4814C20.4292 11.3037 20.7611 11.0781 20.9823 10.9688C21.3557 10.791 21.4248 10.7842 22.379 10.7842C23.3677 10.7842 23.3954 10.791 23.831 10.9961C24.1145 11.1328 24.391 11.3379 24.5777 11.543C24.7437 11.7275 24.9442 12.0488 25.0271 12.2539C25.1792 12.6299 25.1792 12.6367 25.2 18.249C25.2069 21.3457 25.2346 23.875 25.2691 23.875C25.2968 23.875 25.4973 23.8408 26.1127 23.7041L26.3408 7.22949C26.4445 7.00391 26.652 6.70312 26.7903 6.55957C26.9285 6.41602 27.1567 6.23145 27.2881 6.14941C27.4195 6.07422 27.6545 5.96484 27.8067 5.92383C27.9588 5.87598 28.4566 5.83496 28.9129 5.83496ZM21.1552 12.0352C21.0307 12.1172 20.8648 12.3086 20.7887 12.459C20.6573 12.7188 20.6504 12.8691 20.6504 15.2275V17.7227C20.9477 17.6406 21.2312 17.6201 21.4801 17.627C21.7775 17.627 22.0333 17.6748 22.2407 17.7637C22.4136 17.8389 22.6694 18.0098 22.8215 18.1396C22.9667 18.2695 23.1672 18.5225 23.264 18.7139C23.3677 18.9189 23.4507 19.2197 23.4645 19.4658C23.4853 19.7256 23.4576 20.04 23.3815 20.3203C23.3193 20.5664 23.1326 21.0381 22.9667 21.3799C22.8008 21.7217 22.5173 22.166 22.3237 22.3711C22.137 22.5762 21.7014 22.9795 21.3488 23.2598C21.0031 23.54 20.7196 23.793 20.7196 23.8203C20.7196 23.8545 21.5009 23.875 22.4481 23.875H24.1767C24.1421 12.835 24.1421 12.7598 23.9969 12.4932C23.9209 12.3428 23.7203 12.124 23.5613 12.0146C23.2778 11.8164 23.2294 11.8096 22.4965 11.7959C22.0678 11.7891 21.6461 11.8027 21.5493 11.8301C21.4525 11.8643 21.2727 11.9531 21.1552 12.0352ZM14.234 16.4922C14.0819 16.7314 14.075 16.752 14.0819 18.9326C14.0819 20.1494 14.1027 21.1406 14.1372 21.1406C14.1649 21.1338 14.96 20.7305 15.9004 20.2314L17.6151 19.3291C17.5736 16.8135 17.5598 16.6904 17.4284 16.5127C17.3524 16.4102 17.1795 16.2529 17.0481 16.1641C16.8338 16.0205 16.737 16.0068 15.8451 16.0137C15.0637 16.0137 14.8287 16.0342 14.6351 16.1367C14.5037 16.1982 14.3239 16.3623 14.234 16.4922ZM15.7897 21.4482C13.7915 22.501 12.1667 23.376 12.1805 23.3965C12.1943 23.417 12.8789 25.2148 13.7016 27.3955C14.5244 29.5762 15.2159 31.3809 15.2435 31.4082C15.2712 31.4355 17.8986 30.8271 21.086 30.0615C24.2666 29.2891 27.0668 28.585 27.3088 28.5029C27.5439 28.4141 27.8965 28.25 28.0832 28.1475C28.2768 28.0381 28.5672 27.8467 28.7401 27.71C28.9129 27.5801 30.1713 26.5615 31.5403 25.4541C32.9093 24.3467 34.1608 23.3145 34.3268 23.1641C34.4927 23.0068 34.6863 22.7744 34.7554 22.6445C34.8177 22.5146 34.9006 22.3096 34.9214 22.2002C34.949 22.084 34.9421 21.8721 34.9006 21.7217C34.8661 21.5713 34.7347 21.3184 34.6172 21.1543C34.4996 20.9902 34.2853 20.8125 34.1193 20.7305C33.9396 20.6553 33.6699 20.5938 33.4625 20.5938C33.2343 20.5938 32.9992 20.6416 32.8402 20.7236C32.695 20.7988 31.5818 21.5508 30.3649 22.3984C29.1134 23.2734 27.8827 24.0801 27.5301 24.251C27.1775 24.4287 26.6105 24.6338 26.2164 24.7295C25.5457 24.9004 25.4558 24.9004 23.0358 24.9004C20.5605 24.9072 20.5467 24.9004 20.3047 24.75C20.1734 24.6611 19.9936 24.4834 19.9106 24.3535C19.7931 24.1826 19.7516 24.0186 19.7516 23.7725C19.7516 23.5537 19.8 23.3486 19.8899 23.2051C19.9659 23.0889 20.3462 22.7334 20.7334 22.4189C21.1206 22.1113 21.5285 21.7354 21.6392 21.585C21.7498 21.4346 21.9226 21.1406 22.0333 20.9355C22.137 20.7305 22.2753 20.375 22.3444 20.1494C22.4205 19.8828 22.4481 19.6436 22.4205 19.4658C22.3928 19.3154 22.3168 19.1172 22.2476 19.0215C22.1785 18.9258 21.9918 18.7959 21.8397 18.7275C21.6807 18.666 21.4732 18.6113 21.3833 18.6113C21.2935 18.6113 20.8164 18.8164 20.3255 19.0693C19.8346 19.3291 17.7949 20.3955 15.7897 21.4482ZM10.4174 30.6494C10.4727 30.6494 10.694 30.6836 10.9014 30.7314C11.1088 30.7793 11.42 30.916 11.5928 31.0254C11.7657 31.1416 12.0077 31.3877 12.1321 31.5723C12.2566 31.7568 12.3879 32.0781 12.4294 32.2832C12.4709 32.4883 12.4847 32.7822 12.4571 32.9326C12.4363 33.083 12.3465 33.3564 12.2635 33.541C12.1736 33.7461 11.9731 33.999 11.7657 34.1768C11.5651 34.3477 11.2748 34.5254 11.0742 34.5869C10.8392 34.6621 10.5833 34.6826 10.2791 34.6621C10.0164 34.6416 9.70522 34.5664 9.53928 34.4775C9.37334 34.4023 9.11752 34.2041 8.95849 34.04C8.80638 33.8828 8.61969 33.5889 8.53672 33.377C8.43301 33.0898 8.40535 32.8916 8.43301 32.5566C8.44684 32.3037 8.52289 31.9961 8.59895 31.8389C8.67501 31.6885 8.82712 31.4629 8.93775 31.333C9.04837 31.21 9.26271 31.0322 9.41483 30.9434C9.56694 30.8545 9.82968 30.752 10.0025 30.7178C10.1754 30.6836 10.3621 30.6562 10.4174 30.6494ZM9.62225 32.126C9.55311 32.2285 9.47705 32.4404 9.46323 32.5908C9.44248 32.7549 9.47705 32.9463 9.53928 33.0693C9.5946 33.1787 9.72597 33.3496 9.82968 33.4453C9.96796 33.5752 10.1062 33.623 10.369 33.6367C10.6386 33.6504 10.7838 33.623 10.9567 33.5205C11.0742 33.4385 11.2264 33.3086 11.2817 33.2197C11.337 33.1377 11.4061 32.9463 11.4338 32.7959C11.4684 32.584 11.4407 32.4609 11.3093 32.2285C11.1987 32.0303 11.0535 31.8867 10.8668 31.8047C10.7147 31.7295 10.528 31.668 10.452 31.668C10.3759 31.668 10.1892 31.7295 10.0371 31.7979C9.87808 31.873 9.69831 32.0166 9.62225 32.126Z" fill="#6172F3"/>
</svg>